<svg width="60" height="60" viewBox="0 0 60 60" fill="none" xmlns="http://www.w3.org/2000/svg">
<rect x="1" y="1" width="58" height="58" stroke="#0037FF" stroke-width="2"/>
<path d="M13 42.213V18.3935C13 18.2315 13.0694 18.1389 13.2315 18.1389C13.625 18.1389 13.9954 18.1389 14.5278 18.1157C15.0833 18.0926 15.662 18.0926 16.287 18.0694C16.912 18.0463 17.5833 18.0463 18.3009 18.0231C19.0185 18 19.713 18 20.4074 18C22.3056 18 23.8796 18.2315 25.1759 18.7176C26.3333 19.1111 27.3981 19.7593 28.2778 20.6157C29.0185 21.3565 29.5972 22.2593 29.9676 23.2546C30.3148 24.2269 30.5 25.2222 30.5 26.2639C30.5 28.2546 30.037 29.8981 29.1111 31.1944C28.1852 32.4907 26.8889 33.463 25.3843 34.0185C23.8102 34.5972 22.0741 34.8056 20.1759 34.8056C19.6204 34.8056 19.25 34.8056 19.0185 34.7824C18.787 34.7593 18.463 34.7593 18.0231 34.7593V42.1898C18.0463 42.3519 17.9306 42.4907 17.7685 42.5139H13.2778C13.0926 42.5139 13 42.4213 13 42.213ZM18.0463 22.6065V30.3843C18.3704 30.4074 18.6713 30.4306 18.9491 30.4306H20.1759C21.0787 30.4306 21.9815 30.2917 22.838 30.0139C23.5787 29.8056 24.2269 29.3657 24.7361 28.787C25.2222 28.2083 25.4537 27.4213 25.4537 26.4028C25.4769 25.6852 25.2917 24.9676 24.9213 24.3426C24.5278 23.7407 23.9722 23.2778 23.3009 23.0231C22.4444 22.6759 21.5185 22.537 20.5694 22.5602C19.9676 22.5602 19.4352 22.5602 18.9954 22.5833C18.5324 22.5602 18.2083 22.5833 18.0463 22.6065Z" fill="#0037FF"/>
<path d="M44.9442 28.9727C44.2497 28.6023 43.509 28.3477 42.722 28.1857C41.8655 28.0005 41.009 27.8847 40.1294 27.8847C39.6664 27.8616 39.1803 27.931 38.7405 28.0468C38.4395 28.1162 38.1849 28.2782 38.0229 28.5097C37.9071 28.6949 37.8377 28.9264 37.8377 29.1347C37.8377 29.3431 37.9303 29.5514 38.0692 29.7366C38.2775 29.9912 38.5553 30.1995 38.8562 30.3616C39.3886 30.6394 39.9442 30.894 40.4997 31.1255C41.7497 31.5421 42.9534 32.1208 44.0645 32.8153C44.8284 33.3014 45.4534 33.9495 45.8932 34.7366C46.2636 35.4773 46.4488 36.2875 46.4257 37.1208C46.4488 38.2088 46.1247 39.2968 45.5229 40.1995C44.8747 41.1255 43.972 41.8431 42.9303 42.2597C41.796 42.7458 40.4071 43.0005 38.7405 43.0005C37.6757 43.0005 36.634 42.9079 35.5923 42.6995C34.7821 42.5607 33.972 42.306 33.2312 41.9588C33.0692 41.8662 32.9534 41.7042 32.9766 41.519V37.4912C32.9766 37.4218 32.9997 37.3292 33.0692 37.2829C33.1386 37.2366 33.2081 37.2597 33.2775 37.306C34.1803 37.8384 35.1294 38.2088 36.1479 38.4403C37.0275 38.6718 37.9534 38.7875 38.8794 38.7875C39.8053 38.7875 40.384 38.6718 40.8007 38.4634C41.171 38.3014 41.4257 37.9079 41.4257 37.4912C41.4257 37.1671 41.2405 36.8662 40.8701 36.5653C40.4997 36.2644 39.7358 35.9171 38.6016 35.4773C37.421 35.0607 36.3331 34.5051 35.3145 33.8107C34.597 33.3014 33.9951 32.6301 33.5553 31.8431C33.1849 31.1023 32.9997 30.2921 33.0229 29.482C33.0229 28.4866 33.3007 27.5375 33.8099 26.681C34.3886 25.7551 35.2451 25.0144 36.2405 24.5514C37.3284 23.9958 38.6942 23.7412 40.3377 23.7412C41.2868 23.7412 42.259 23.8107 43.2081 23.9495C43.9025 24.0421 44.5738 24.2273 45.1988 24.482C45.2914 24.5051 45.384 24.5977 45.4303 24.6903C45.4534 24.7829 45.4766 24.8755 45.4766 24.9681V28.7412C45.4766 28.8338 45.4303 28.9264 45.3608 28.9727C45.1525 29.019 45.0368 29.019 44.9442 28.9727Z" fill="#0037FF"/>
</svg>
