<svg width="60" height="60" viewBox="0 0 60 60" fill="none" xmlns="http://www.w3.org/2000/svg">
<rect x="1" y="1" width="58" height="58" stroke="#0037FF" stroke-width="2"/>
<path d="M35.1038 37.2172C32.9901 31.2509 30.8732 25.2856 28.7721 19.315C28.6243 18.8959 28.4184 18.7523 27.9782 18.7723C27.1705 18.8093 26.3607 18.7829 25.5509 18.7829C24.6714 18.7829 23.7919 18.7945 22.9124 18.7776C22.5799 18.7713 22.4384 18.8631 22.4447 19.221C22.4553 19.8028 22.356 20.3729 22.1649 20.9272C21.655 22.4022 21.1619 23.8824 20.6488 25.3563C18.8085 30.6543 16.9609 35.9523 15.1164 41.2504C14.8989 41.8765 14.9453 41.9409 15.6105 41.9419C16.7888 41.944 17.9681 41.9229 19.1453 41.9525C19.594 41.9641 19.801 41.8078 19.9308 41.3845C20.3891 39.8926 20.8927 38.4155 21.3498 36.9226C21.4523 36.5879 21.6032 36.4929 21.939 36.495C24.3663 36.5077 26.7936 36.5088 29.2208 36.495C29.5545 36.4929 29.7118 36.5869 29.8205 36.9163C30.3199 38.4314 30.8584 39.9338 31.362 41.4478C31.4782 41.7962 31.6334 41.9588 32.0272 41.9525C33.4166 41.9292 34.806 41.9292 36.1955 41.9514C36.6801 41.9588 36.7255 41.7762 36.583 41.3802C36.0825 39.995 35.5947 38.6056 35.1038 37.2172ZM27.843 32.0153C26.2973 31.9899 24.7506 32.0068 23.2049 32.0047C23.0866 32.0047 22.9684 31.9857 22.8322 31.9741C23.7053 28.983 24.7157 26.0605 25.5023 23.0008C25.6871 23.2521 25.705 23.496 25.7684 23.7188C26.5117 26.3298 27.3521 28.9112 28.1851 31.4947C28.3034 31.8632 28.3181 32.0237 27.843 32.0163V32.0153Z" fill="#0037FF"/>
<path d="M43.8985 33.1655C43.8985 30.4225 43.89 27.6806 43.9069 24.9376C43.9101 24.4942 43.7623 24.3601 43.3305 24.3675C42.0646 24.3897 40.7986 24.3886 39.5327 24.3675C39.1115 24.3601 38.9394 24.4784 38.9404 24.9271C38.951 30.412 38.951 35.8979 38.9415 41.3828C38.9415 41.8389 39.1051 42.0047 39.5623 41.9962C40.7923 41.9751 42.0244 41.9677 43.2544 41.9994C43.7644 42.0121 43.9133 41.8453 43.909 41.3395C43.8869 38.6145 43.8985 35.8895 43.8985 33.1645V33.1655Z" fill="#0037FF"/>
<path d="M41.5506 22.5673C43.0467 22.5916 44.2059 21.3742 44.2144 19.7726C44.2228 18.1245 43.1343 17.0085 41.5073 17C39.9215 16.9916 38.7221 18.1657 38.7168 19.7325C38.7105 21.4376 39.8117 22.5398 41.5506 22.5673Z" fill="#0037FF"/>
</svg>
