<svg width="60" height="60" viewBox="0 0 60 60" fill="none" xmlns="http://www.w3.org/2000/svg">
<rect x="1" y="1" width="58" height="58" stroke="#0037FF" stroke-width="2"/>
<path d="M43.8695 25.0606C43.8695 24.9425 43.8695 24.8503 43.8695 24.7578C43.8695 22.6238 43.8695 20.4894 43.8695 18.3554C43.8695 18.0283 43.8942 18.0011 44.207 18.0006C45.5986 17.9998 46.9898 17.9998 48.3815 18.0006C48.6272 18.0006 48.664 18.0396 48.6692 18.2931C48.6705 18.3653 48.6692 18.4371 48.6692 18.5094C48.6692 24.5081 48.6614 30.5065 48.6743 36.5053C48.6778 38.0682 48.7457 39.6312 48.7873 41.1941C48.7963 41.529 48.7639 41.5865 48.4555 41.7132C46.8246 42.3833 45.1258 42.7623 43.3721 42.9197C41.9726 43.0452 40.5801 43.0508 39.2019 42.7368C37.4723 42.3422 35.9258 41.6137 34.7146 40.2705C33.7438 39.1943 33.1308 37.9423 32.867 36.5234C32.5568 34.8545 32.4949 33.1803 33.0114 31.5421C34.0371 28.2873 36.2572 26.2619 39.5276 25.379C40.8665 25.0173 42.2387 24.9347 43.6212 25.0601C43.6917 25.0666 43.7636 25.061 43.8687 25.061L43.8695 25.0606ZM43.8695 33.9248C43.8695 32.4047 43.8669 30.8846 43.8734 29.3644C43.8743 29.2014 43.8215 29.1386 43.6645 29.1109C42.5622 28.9145 41.479 28.9699 40.4464 29.4198C39.1015 30.006 38.0961 30.9365 37.7358 32.4073C37.4187 33.7012 37.4741 34.9929 37.9603 36.247C38.2363 36.9595 38.6551 37.5742 39.2892 38.0172C40.6251 38.9507 42.127 38.9204 43.6511 38.7543C43.8341 38.7344 43.8747 38.6392 43.8743 38.4645C43.8674 36.9517 43.8704 35.4385 43.8704 33.9253L43.8695 33.9248Z" fill="#0037FF"/>
<path d="M22.2499 28.4229C22.2992 28.3399 22.3338 28.2871 22.3632 28.2317C23.5308 26.0073 24.6983 23.7829 25.865 21.5586C26.119 21.074 26.3764 20.5913 26.6221 20.1024C26.6978 19.9519 26.8059 19.8905 26.9638 19.8909C28.4706 19.8952 29.9768 19.8991 31.4836 19.9034C31.5411 19.9034 31.6021 19.8961 31.6553 19.9121C31.8249 19.964 31.8093 20.0696 31.7319 20.1963C31.2712 20.9525 30.8122 21.7104 30.3532 22.4679C28.692 25.2083 27.033 27.9497 25.3667 30.6871C25.2707 30.845 25.272 30.951 25.3684 31.1085C27.5997 34.7578 29.825 38.4111 32.049 42.0652C32.1277 42.1945 32.18 42.3395 32.2614 42.5121C32.1407 42.5263 32.0792 42.5402 32.0174 42.5402C30.3017 42.5389 28.5861 42.5341 26.8704 42.5363C26.5459 42.5363 26.3521 42.4013 26.196 42.1072C24.8022 39.4813 23.3928 36.8633 21.9873 34.2435C21.9574 34.1881 21.9207 34.1366 21.8644 34.0471C21.8108 34.1388 21.771 34.2011 21.7364 34.2664C20.298 36.9589 18.8596 39.6509 17.4247 42.3451C17.3447 42.4952 17.2383 42.5748 17.0687 42.5761C16.6651 42.5791 16.2615 42.5882 15.8579 42.5891C14.6466 42.5912 13.4353 42.5904 12.2241 42.5899C12.1678 42.5899 12.1116 42.5839 12 42.577C12.0493 42.439 12.0714 42.3139 12.1324 42.2131C13.441 40.0593 14.7543 37.9084 16.0664 35.7567C16.9437 34.3179 17.8188 32.8782 18.7 31.4424C18.7787 31.3144 18.7813 31.2218 18.7043 31.0912C16.5729 27.4898 14.4463 23.8876 12.3188 20.2859C12.2894 20.2361 12.2604 20.1868 12.2332 20.1358C12.1501 19.9813 12.2185 19.9056 12.3712 19.8805C12.4205 19.8723 12.472 19.8771 12.5221 19.8771C14.1011 19.8771 15.6801 19.8805 17.2586 19.874C17.5865 19.8727 17.7855 19.9978 17.9231 20.3062C18.7372 22.13 19.7426 23.8526 20.728 25.5864C21.2112 26.4373 21.6503 27.3129 22.1101 28.1772C22.1495 28.2512 22.1928 28.323 22.2499 28.4234V28.4229Z" fill="#0037FF"/>
</svg>
