<svg width="60" height="60" viewBox="0 0 60 60" fill="none" xmlns="http://www.w3.org/2000/svg">
<rect x="1" y="1" width="58" height="58" stroke="#0037FF" stroke-width="2"/>
<path d="M24.1669 12H30.3221V24.3104H24.1669C20.7696 24.3104 18.0117 21.5526 18.0117 18.1552C18.0117 14.7578 20.7696 12 24.1669 12Z" fill="#0037FF"/>
<path d="M24.1669 24.3408H30.3221V36.6512H24.1669C20.7696 36.6512 18.0117 33.8934 18.0117 30.496C18.0117 27.0995 20.7696 24.3408 24.1669 24.3408Z" fill="#0037FF"/>
<path d="M42.6058 30.496C42.6058 27.0966 39.85 24.3408 36.4506 24.3408C33.0512 24.3408 30.2954 27.0966 30.2954 30.496C30.2954 33.8955 33.0512 36.6512 36.4506 36.6512C39.85 36.6512 42.6058 33.8955 42.6058 30.496Z" fill="#0037FF"/>
<path d="M24.1669 36.6895H30.3221V42.8447C30.3221 46.242 27.5643 48.9999 24.1669 48.9999C20.7696 48.9999 18.0117 46.242 18.0117 42.8447C18.0117 39.4473 20.7696 36.6895 24.1669 36.6895Z" fill="#0037FF"/>
<path d="M36.4507 24.3105H30.2955V12.0001L36.4507 12.0001C39.8481 12.0001 42.606 14.758 42.606 18.1553C42.606 21.5527 39.8481 24.3105 36.4507 24.3105Z" fill="#0037FF"/>
</svg>
