<svg width="60" height="60" viewBox="0 0 60 60" fill="none" xmlns="http://www.w3.org/2000/svg">
<rect x="1" y="1" width="58" height="58" stroke="#0037FF" stroke-width="2"/>
<path d="M20.2023 17.0098C21.0994 17.0098 21.9974 17.029 22.8936 17.0007C23.2669 16.9888 23.433 17.1312 23.5516 17.467C24.8219 21.0599 26.1041 24.6483 27.3809 28.2375C28.8721 32.4282 30.3623 36.6198 31.8517 40.8114C31.8973 40.94 31.9831 41.0815 31.9594 41.1992C31.9366 41.3179 31.8015 41.5058 31.7139 41.5068C30.1022 41.525 28.4897 41.5332 26.878 41.4995C26.7247 41.4958 26.5057 41.2248 26.4382 41.0349C25.8623 39.4196 25.302 37.797 24.7663 36.168C24.6394 35.7829 24.4551 35.667 24.0526 35.6698C21.4827 35.6898 18.9119 35.6871 16.342 35.6707C15.987 35.6689 15.8401 35.7875 15.7388 36.116C15.246 37.7113 14.7149 39.2937 14.2321 40.8917C14.0834 41.3854 13.8315 41.5506 13.3213 41.536C12.0902 41.5013 10.8582 41.525 9.62621 41.5241C8.9299 41.5241 8.89978 41.4812 9.1252 40.8333C10.1573 37.8664 11.1886 34.8986 12.2207 31.9318C13.6526 27.8177 15.0982 23.7092 16.5027 19.5861C16.7345 18.9062 16.8175 18.1697 16.9106 17.4524C16.9526 17.1275 17.0347 16.997 17.3715 17.0025C18.3142 17.018 19.2569 17.008 20.2005 17.008L20.2023 17.0098ZM17.3003 31.0319H23.182C22.1882 27.8177 21.208 24.6474 20.2297 21.4852C19.2551 24.6611 18.2831 27.826 17.2994 31.0319H17.3003Z" fill="#0037FF"/>
<path d="M38.4706 33.5984C38.5665 35.2648 39.5877 36.5534 40.9703 37.1082C42.6622 37.7881 44.387 37.7297 46.1264 37.3966C46.9113 37.246 47.6861 37.0416 48.4992 36.8536C48.5092 37.0014 48.5293 37.1648 48.5302 37.3282C48.5348 38.332 48.5184 39.3368 48.543 40.3397C48.554 40.7915 48.3778 41.0269 47.9562 41.1821C45.7386 41.9979 43.4471 42.1111 41.1254 41.9195C39.7437 41.8054 38.4369 41.4175 37.2541 40.6783C35.0849 39.3231 33.8574 37.3199 33.4093 34.845C32.7742 31.3369 33.34 28.0826 35.7356 25.3192C37.2213 23.6045 39.1396 22.7238 41.4229 22.6499C42.8 22.6052 44.1516 22.6773 45.4593 23.1792C47.8923 24.1128 49.1992 25.9772 49.8499 28.4011C50.2642 29.9443 50.1629 31.5076 50.0014 33.0672C49.9858 33.2187 49.7668 33.4578 49.6272 33.4697C48.7657 33.5427 47.8996 33.5901 47.0354 33.5938C44.1936 33.6075 41.3508 33.5993 38.4725 33.5993L38.4706 33.5984ZM38.4661 30.1049C38.5546 30.1177 38.613 30.1341 38.6714 30.1341C40.6006 30.1341 42.5308 30.135 44.46 30.1305C44.5951 30.1305 44.7302 30.0976 44.8643 30.0757C45.1281 30.0319 45.2932 29.895 45.223 29.6094C45.1153 29.1722 45.0569 28.7023 44.8506 28.3126C44.1415 26.9692 42.6111 26.366 41.0642 26.7612C39.5849 27.139 38.4971 28.5225 38.4652 30.104L38.4661 30.1049Z" fill="#0037FF"/>
</svg>
