<svg width="60" height="60" viewBox="0 0 60 60" fill="none" xmlns="http://www.w3.org/2000/svg">
<rect x="1" y="1" width="58" height="58" stroke="#0037FF" stroke-width="2"/>
<path d="M14 12L16.8688 44.39L29.7512 48L42.7487 44.3612L45.6406 12H14ZM39.7041 19.3375C39.6073 20.373 39.5048 21.408 39.414 22.4444C39.4001 22.603 39.3325 22.6336 39.1942 22.6332C36.0393 22.6275 32.8847 22.624 29.7298 22.6214C27.9632 22.6201 26.1967 22.621 24.4306 22.6214C24.3817 22.6214 24.3324 22.6328 24.2526 22.6428C24.3725 23.9764 24.4916 25.299 24.6138 26.6549C24.7232 26.6549 24.8223 26.6549 24.9213 26.6549C29.5156 26.6523 34.1096 26.6497 38.7039 26.647C39.0333 26.647 39.0385 26.6475 39.0106 26.9657C38.898 28.2481 38.7803 29.5301 38.6669 30.8126C38.5596 32.0299 38.4579 33.2476 38.3493 34.4649C38.2403 35.6822 38.1255 36.8987 38.0134 38.1155C37.9969 38.2965 37.9611 38.4788 37.9703 38.6588C37.9803 38.8573 37.8673 38.9006 37.7164 38.9421C36.6264 39.2424 35.5372 39.547 34.4476 39.8495C32.9881 40.2547 31.5291 40.6634 30.067 41.0585C29.9099 41.1009 29.7215 41.1009 29.5649 41.0581C27.0254 40.357 24.489 39.6427 21.9495 38.9425C21.7406 38.8848 21.6861 38.7909 21.6691 38.5863C21.5548 37.2081 21.4244 35.8313 21.3005 34.454C21.2464 33.8534 21.1958 33.2529 21.1413 32.6234H25.1298C25.1564 32.8761 25.1856 33.1252 25.2078 33.3757C25.2724 34.1083 25.3378 34.8404 25.3937 35.5734C25.405 35.7242 25.4451 35.8002 25.6065 35.8426C26.9613 36.1971 28.3131 36.5647 29.667 36.9227C29.7595 36.9472 29.8694 36.9511 29.9614 36.9266C31.3075 36.5717 32.6514 36.2072 33.9975 35.8531C34.1706 35.8077 34.233 35.7342 34.2483 35.5476C34.3521 34.2643 34.4725 32.9827 34.5881 31.7003C34.6186 31.3624 34.6504 31.0245 34.6845 30.6552H20.9664C20.6043 26.6418 20.244 22.6533 19.882 18.6377H39.7591C39.7407 18.8786 39.7259 19.1085 39.7045 19.3379L39.7041 19.3375Z" fill="#0037FF"/>
</svg>
