<svg width="60" height="60" viewBox="0 0 60 60" fill="none" xmlns="http://www.w3.org/2000/svg">
<rect x="1" y="1" width="58" height="58" stroke="#0037FF" stroke-width="2"/>
<path d="M9.00156 26.5454C9.05393 26.2677 9.09489 25.9881 9.15971 25.7136C9.49002 24.3214 10.2217 23.1395 11.1214 22.0528C12.5598 20.3157 14.3244 18.9665 16.2451 17.8115C18.4494 16.4856 20.7777 15.4291 23.2387 14.6755C25.0634 14.1172 26.9375 13.9048 28.8364 14.039C30.435 14.1519 31.973 14.5191 33.3062 15.4809C34.4454 16.3028 35.0288 17.4164 35.0744 18.8236C35.1336 20.6467 34.4486 22.2072 33.3829 23.6263C31.7729 25.7716 29.6038 27.0591 27.0272 27.7205C25.8615 28.0199 24.6797 28.2146 23.4798 28.2193C22.1855 28.224 20.898 28.1038 19.808 27.2938C19.4725 27.0446 19.1832 26.7282 18.9005 26.4174C18.7782 26.2828 18.6978 26.0922 18.6516 25.913C18.6174 25.7793 18.6682 25.624 18.6812 25.4784C18.8005 25.5354 18.9508 25.5639 19.0349 25.6535C19.7007 26.3651 20.5537 26.7059 21.4865 26.8152C23.7723 27.0819 25.9009 26.4946 27.9274 25.495C29.5722 24.6839 30.9754 23.5662 31.9984 22.0207C32.5694 21.1584 32.9666 20.2318 32.9277 19.1695C32.9002 18.4196 32.6103 17.8022 31.9834 17.3615C31.2803 16.8668 30.4796 16.6395 29.6437 16.5302C27.0749 16.193 24.633 16.7425 22.2654 17.6707C19.5643 18.7288 17.0519 20.1287 14.8424 22.0269C13.8598 22.8712 13.0006 23.8299 12.4831 25.0397C11.741 26.7758 11.9816 28.3648 13.2324 29.7964C14.0459 30.7271 15.0395 31.4481 15.9915 32.2203C16.8357 32.9045 17.6519 33.6239 18.4738 34.335C18.5827 34.4292 18.6625 34.4531 18.7906 34.3826C20.0761 33.6762 21.3657 32.9759 22.6491 32.2664C22.7564 32.2068 22.8415 32.097 22.9208 31.9981C23.6437 31.0938 24.4863 30.334 25.5789 29.9129C25.9061 29.7865 26.2872 29.7228 26.6362 29.7461C27.2325 29.7855 27.6551 30.2806 27.6966 30.9286C27.7267 31.3957 27.7023 31.8671 27.7023 32.3482C27.7319 32.3353 27.7894 32.3244 27.8293 32.2912C28.086 32.0768 28.3593 32.0815 28.6507 32.2089C29.0039 32.3632 29.1169 32.5751 29.022 32.9516C28.7316 34.1019 28.42 35.2471 28.1545 36.4031C28.042 36.8935 28.0181 37.4053 27.9657 37.9087C27.9554 38.0102 27.9979 38.1174 28.016 38.2225C28.0456 38.2319 28.0746 38.2407 28.1042 38.25C28.2037 38.0993 28.322 37.9574 28.4003 37.7963C28.8654 36.834 29.3362 35.8743 29.7765 34.9006C30.5004 33.2986 31.2082 31.6894 31.9087 30.0771C32.0555 29.7399 32.1887 29.3831 32.2416 29.0226C32.3163 28.514 32.5948 28.2737 33.0713 28.2447C33.524 28.2172 33.9829 28.1929 34.4325 28.2353C34.8214 28.2721 34.9033 28.4855 34.7991 28.8558C34.6461 29.4007 34.462 29.9445 34.3879 30.5018C34.2505 31.5325 34.5046 32.4963 35.0625 33.4126C35.1185 33.3499 35.1724 33.309 35.2025 33.2541C35.9378 31.9069 36.6964 30.5717 37.3892 29.2034C37.6418 28.7046 37.7486 28.1297 37.8964 27.5828C37.9762 27.2865 38.1375 27.1032 38.4367 27.0773C38.9485 27.0332 39.4644 26.9669 39.9742 26.9959C40.3522 27.0172 40.558 27.1928 40.3983 27.6667C40.2236 28.1851 40.0805 28.7217 39.9975 29.2614C39.8813 30.0129 39.9985 30.7545 40.3019 31.4553C40.4626 31.8272 40.6576 32.184 40.8303 32.5507C40.893 32.6833 40.9604 32.7304 41.1087 32.66C41.9161 32.2747 42.7665 32.0271 43.6543 31.9282C45.7279 31.6961 47.6585 32.011 49.2172 33.5332C50.05 34.3464 50.4866 35.3512 50.4155 36.5367C50.345 37.7233 49.4718 38.5592 48.5815 38.8943C48.542 38.9093 48.4938 38.9202 48.4544 38.9114C48.3626 38.8907 48.274 38.857 48.1843 38.8285C48.2366 38.7565 48.2771 38.67 48.344 38.6157C48.4907 38.496 48.6608 38.4038 48.8034 38.28C49.6875 37.5151 49.8752 36.5388 49.3401 35.4858C48.9087 34.6364 48.204 34.0895 47.3453 33.7233C46.6094 33.41 45.8347 33.2743 45.0393 33.1992C43.9498 33.0966 42.8899 33.1992 41.8487 33.5234C41.6936 33.5716 41.5428 33.6347 41.3607 33.7021C41.4427 33.9916 41.5246 34.2682 41.5998 34.5468C41.885 35.6023 41.5593 36.4771 40.8059 37.2281C40.0773 37.9548 39.1963 38.4163 38.2127 38.6695C37.3643 38.8876 36.8868 38.3525 36.9127 37.659C36.9412 36.8873 37.242 36.2233 37.6537 35.5961C38.0685 34.9637 38.5741 34.4096 39.1517 33.9227C39.2674 33.8253 39.3441 33.743 39.2523 33.5783C38.7177 32.6206 38.4092 31.5848 38.2101 30.5122C38.2059 30.4899 38.1873 30.4702 38.152 30.4075C38.0908 30.5054 38.0426 30.579 37.998 30.6541C37.2492 31.924 36.5051 33.1966 35.748 34.4619C35.6619 34.6059 35.6469 34.7151 35.7091 34.8648C35.9352 35.4081 36.098 35.9659 36.1069 36.5626C36.1219 37.6119 35.6905 38.4406 34.8437 39.0347C33.8828 39.709 32.8172 40.0959 31.622 40.0493C31.5961 40.0482 31.5701 40.0493 31.5442 40.0477C30.9064 40.0125 30.6139 39.5122 30.9463 38.9699C31.1662 38.6115 31.4446 38.2878 31.7086 37.9584C32.3775 37.123 33.0511 36.2917 33.7278 35.4625C33.846 35.3175 33.8636 35.1937 33.7703 35.0228C33.1978 33.9724 32.7996 32.8589 32.5533 31.6599C32.5159 31.7267 32.4698 31.7904 32.4418 31.8608C31.4394 34.3992 30.2582 36.8521 28.8887 39.2118C28.6388 39.6432 28.2877 40.0368 27.9144 40.3709C27.3528 40.8717 26.6839 40.6791 26.38 39.9892C26.1799 39.535 26.1648 39.0517 26.1695 38.569C26.1726 38.251 26.211 37.9335 26.2312 37.6161C26.2364 37.5358 26.2317 37.4545 26.1778 37.3643C26.0321 37.6994 25.8999 38.0418 25.7381 38.3686C25.3823 39.0859 25.0344 39.8084 24.6398 40.5045C24.2908 41.1203 23.7064 41.2913 23.0339 41.1789C22.6714 41.1183 22.4178 40.8811 22.2146 40.59C21.7043 39.8607 21.4347 39.0378 21.3144 38.1666C21.1391 36.8977 21.3398 35.6619 21.7012 34.4458C21.7251 34.3661 21.7463 34.2853 21.7842 34.1511C21.6639 34.2008 21.5861 34.2241 21.5171 34.2635C20.8643 34.6343 20.2135 35.0088 19.5612 35.3807C19.4492 35.4444 19.3683 35.4951 19.4404 35.6593C19.8682 36.6361 19.977 37.658 19.8822 38.7161C19.7836 39.8162 19.4989 40.8541 18.9021 41.7854C17.7541 43.5774 16.1331 44.6754 14.0086 44.9551C13.3086 45.0473 12.5914 45.01 11.9049 44.7982C11.2562 44.5982 10.8875 44.0927 10.6495 43.5033C10.1232 42.1976 10.3824 40.9582 11.0928 39.8043C11.6918 38.8316 12.5619 38.1019 13.502 37.484C14.5676 36.7843 15.6856 36.1638 16.7813 35.5091C16.9042 35.4356 17.0291 35.3651 17.2044 35.2641C16.8482 34.9912 16.5344 34.7384 16.2078 34.5028C14.9964 33.6296 13.7628 32.7848 12.5722 31.8847C11.5004 31.0741 10.537 30.1439 9.82397 28.9869C9.43661 28.3581 9.14416 27.691 9.05497 26.9483C9.04926 26.8991 9.01867 26.853 9 26.8054C9 26.7189 9 26.6329 9 26.5464L9.00156 26.5454ZM18.1673 36.0908C18.0745 36.127 18.0398 36.1343 18.0118 36.1519C17.2775 36.6196 16.5282 37.0665 15.8147 37.5637C15.0146 38.121 14.2331 38.7125 13.6544 39.5153C13.1727 40.1839 12.8398 40.9121 12.8704 41.7631C12.8891 42.2852 13.1639 42.6467 13.643 42.7135C13.8785 42.7466 14.1305 42.7446 14.3633 42.699C15.5056 42.4758 16.3975 41.8408 17.1323 40.9634C18.0761 39.8364 18.4753 38.5359 18.3457 37.0769C18.3172 36.7568 18.2321 36.4424 18.1668 36.0908H18.1673ZM23.2911 36.9904C23.2802 37.5208 23.3056 38.0454 23.5431 38.5307C23.6898 38.8306 23.8962 38.8668 24.101 38.6068C24.3017 38.352 24.4837 38.0708 24.6149 37.7745C25.3435 36.128 26.0113 34.4567 26.4962 32.7196C26.5994 32.3503 26.6476 31.9639 26.7031 31.5832C26.7306 31.3947 26.616 31.2839 26.4262 31.2953C26.2831 31.3041 26.115 31.3103 26.0056 31.3859C25.6748 31.6138 25.302 31.8246 25.0614 32.1322C23.9512 33.5555 23.2942 35.158 23.2916 36.9899L23.2911 36.9904ZM39.8772 34.4515C39.6065 34.7519 39.3555 35.0088 39.1295 35.2859C38.7037 35.808 38.4393 36.415 38.2656 37.0603C38.2355 37.1722 38.2806 37.3043 38.291 37.427C38.4045 37.4042 38.5264 37.4006 38.6296 37.355C39.3716 37.0272 39.8699 36.4859 40.0058 35.6718C40.0696 35.2874 40.0898 34.8902 39.8772 34.452V34.4515ZM32.3298 38.7798C32.35 38.8062 32.3702 38.8321 32.3905 38.8586C32.9873 38.7664 33.3933 38.3427 33.79 37.9346C34.2017 37.5114 34.475 37.0106 34.4231 36.3352C33.6982 37.182 33.0137 37.9807 32.3298 38.7793V38.7798Z" fill="#0037FF"/>
</svg>
