<svg width="1896" height="1268" viewBox="0 0 1896 1268" fill="none" xmlns="http://www.w3.org/2000/svg">
<path d="M2183.5 1261C1797 1261 1840.5 1102.73 1661.82 1102.73C1504.31 1102.73 1500.16 963.994 1346.04 952.655C1191.92 941.316 1057.55 630.544 882.5 617.665C707.453 604.786 411.699 635.878 175 219.346C152.805 180.287 97.5017 86.0307 77.5005 50.5" stroke="white" stroke-width="13"/>
<rect x="1354.8" y="934" width="28" height="28" transform="rotate(45 1354.8 934)" fill="white"/>
<rect x="841" y="596" width="28" height="28" transform="rotate(45 841 596)" fill="white"/>
<rect x="260.851" y="317.371" width="28" height="28" transform="rotate(101.058 260.851 317.371)" fill="white"/>
<path d="M101.39 60.9213C103.316 61.2926 105.257 61.6074 107.208 61.8575C113.127 62.579 119.222 62.8644 125.359 62.6512C133.893 62.3544 136.464 50.2486 128.445 48.0446C119.622 45.617 110.998 42.7184 102.734 38.9722C99.4816 37.4748 96.1286 35.7681 93.0782 33.9474C86.8629 30.3149 81.3305 25.9035 76.4539 20.7621C74.8345 19.1028 72.6366 17.9825 70.0626 17.6996C63.7276 17.0036 57.5388 21.6605 56.2376 28.1017C55.3324 32.6451 55.0135 37.2958 54.9342 41.8051C54.7546 58.7701 58.5852 75.7665 65.9612 90.6175C69.5874 97.9181 81.1686 93.4234 80.0325 85.1558C79.9614 84.6328 79.8932 84.1068 79.825 83.5809C79.3127 79.7953 78.8741 75.9778 78.5224 72.1471C77.9331 65.6783 77.5991 59.1649 77.6276 52.6428C84.9903 56.5637 93.0546 59.3061 101.392 60.9184L101.39 60.9213Z" fill="white"/>
</svg>
