<svg width="1920" height="784" viewBox="0 0 1920 784" fill="none" xmlns="http://www.w3.org/2000/svg">
<path d="M-209 18.0025C-128.167 -5.33085 21 -9.50067 131 213.501C171.631 295.871 298.342 600.48 473.5 514.503C637.5 434.003 513 340 457 466.5C396.281 603.661 632 951.503 1100 669.003C1584.6 376.482 1905.38 564.785 1810.5 619.001C1737 661 1615 373.501 1973.5 74.5005" stroke="#0037FF" stroke-width="13"/>
<path d="M475 652L475 624L503 624L503 652L475 652Z" fill="#0037FF"/>
<path d="M943 743.358L952.447 717L978.805 726.448L969.358 752.806L943 743.358Z" fill="#0037FF"/>
<path d="M1466 519.685L1483.71 498L1505.4 515.713L1487.68 537.398L1466 519.685Z" fill="#0037FF"/>
</svg>
