<svg width="1920" height="128" viewBox="0 0 1920 128" fill="none" xmlns="http://www.w3.org/2000/svg">
<rect y="64" width="90.5097" height="90.5097" transform="rotate(-45 0 64)" fill="#0037FF"/>
<rect x="768" y="64" width="90.5097" height="90.5097" transform="rotate(-45 768 64)" fill="#0037FF"/>
<rect x="1536" y="64" width="90.5097" height="90.5097" transform="rotate(-45 1536 64)" fill="#0037FF"/>
<rect x="384" y="64" width="90.5097" height="90.5097" transform="rotate(-45 384 64)" fill="#0037FF"/>
<rect x="1152" y="64" width="90.5097" height="90.5097" transform="rotate(-45 1152 64)" fill="#0037FF"/>
<rect x="128" y="64" width="90.5097" height="90.5097" transform="rotate(-45 128 64)" fill="#0037FF"/>
<rect x="896" y="64" width="90.5097" height="90.5097" transform="rotate(-45 896 64)" fill="#0037FF"/>
<rect x="1664" y="64" width="90.5097" height="90.5097" transform="rotate(-45 1664 64)" fill="#0037FF"/>
<rect x="512" y="64" width="90.5097" height="90.5097" transform="rotate(-45 512 64)" fill="#0037FF"/>
<rect x="1280" y="64" width="90.5097" height="90.5097" transform="rotate(-45 1280 64)" fill="#0037FF"/>
<rect x="256" y="64" width="90.5097" height="90.5097" transform="rotate(-45 256 64)" fill="#0037FF"/>
<rect x="1024" y="64" width="90.5097" height="90.5097" transform="rotate(-45 1024 64)" fill="#0037FF"/>
<rect x="1792" y="64" width="90.5097" height="90.5097" transform="rotate(-45 1792 64)" fill="#0037FF"/>
<rect x="640" y="64" width="90.5097" height="90.5097" transform="rotate(-45 640 64)" fill="#0037FF"/>
<rect x="1408" y="64" width="90.5097" height="90.5097" transform="rotate(-45 1408 64)" fill="#0037FF"/>
</svg>
