<svg width="2165" height="881" viewBox="0 0 2165 881" fill="none" xmlns="http://www.w3.org/2000/svg">
<path fill-rule="evenodd" clip-rule="evenodd" d="M1759.46 62.4881C1764.56 66.3154 1768.33 72.9218 1771.17 81.4446C1776.47 97.3537 1777.46 123.854 1775.97 154.876C1774.68 181.563 1771.5 212.33 1767.17 244.023C1782.83 245.787 1803.01 243.281 1828.77 234.334C1896.85 210.684 2000.84 143.116 2155.59 0.224609L2164.41 9.77587C2009.42 152.884 1903.79 222.036 1833.03 246.614C1806.03 255.994 1783.66 259.038 1765.36 256.903C1765.18 258.167 1765 259.431 1764.81 260.697C1753.79 335.605 1737.1 413.26 1724.19 453.008L1723.95 452.933C1722.77 456.499 1721.38 460.418 1719.79 464.691C1717.73 470.435 1715.59 475.896 1713.36 481.075C1711.35 485.893 1709.87 489.345 1708.92 491.432C1706.83 495.968 1703.93 500.878 1700.21 506.165C1696.78 511.374 1693.06 516.056 1689.03 520.212C1685.21 524.007 1681.05 527.134 1676.56 529.593C1672.07 532.052 1667.56 533.907 1663.03 535.157C1655.68 537.189 1649.72 536.553 1645.16 533.25C1640.88 529.869 1638.07 525.775 1636.74 520.968C1634.71 513.617 1634.81 504.612 1637.04 493.954C1639.47 482.934 1642.79 471.822 1647 460.616C1651.41 449.049 1655.53 438.629 1659.35 429.354C1663.46 420.001 1666.18 413.316 1667.51 409.298C1667.84 408.293 1668.07 407.469 1668.19 406.826C1668.24 405.899 1668.19 405.153 1668.03 404.588C1667.41 402.326 1665.4 401.664 1662 402.602C1660.31 403.07 1658.45 404.042 1656.42 405.515C1646.15 413.525 1635.95 423.954 1625.81 436.8C1615.94 449.569 1607.17 462.951 1599.47 476.947C1591.98 490.582 1586.45 503.066 1582.89 514.398L1573.31 545.805C1572.52 548.457 1571.91 551.212 1571.48 554.069C1570.98 556.644 1570.33 559.257 1569.54 561.91C1568.47 564.641 1566.66 566.358 1564.12 567.061C1562.7 567.452 1561.03 567.457 1559.1 567.078C1557.17 566.699 1556.01 565.802 1555.62 564.388C1554.99 562.127 1554.87 560.03 1555.25 558.099C1556.48 550.454 1558.14 541.02 1560.21 529.795C1562.56 518.493 1564.7 506.947 1566.61 495.158C1568.73 483.007 1570.2 471.798 1571.01 461.53C1572.11 451.184 1571.88 443.184 1570.31 437.529C1569.85 435.833 1568.99 434.395 1567.75 433.216C1566.72 431.676 1565.07 431.218 1562.81 431.843C1559.42 432.781 1556.41 435.132 1553.8 438.897C1551.47 442.584 1549.55 446.617 1548.02 450.996L1544 461.236C1540.45 470.433 1537.6 478.83 1535.44 486.426C1533.2 493.741 1530.82 501.094 1528.3 508.486C1527.91 509.674 1527.49 510.889 1527.06 512.132C1524.58 519.982 1521.89 527.233 1518.98 533.887C1514.41 544.888 1507.84 554.159 1499.28 561.701C1490.63 568.959 1478.85 574.801 1463.95 579.225C1459.57 586.521 1453.67 593.783 1446.23 601.012C1439.08 608.163 1430.84 613.027 1421.51 615.606C1413.87 617.716 1407.25 617.417 1401.63 614.709C1396.01 612.001 1391.29 608.132 1387.46 603.103C1383.84 597.712 1381.33 592.472 1379.92 587.383C1378.13 580.893 1377.32 573.435 1377.5 565.008C1375.6 570.25 1373.57 575.45 1371.41 580.607C1365.28 594.778 1357.48 607.282 1347.99 618.12C1338.72 628.597 1326.87 635.828 1312.45 639.813C1297.75 643.876 1286.26 642.488 1277.97 635.647C1269.9 628.445 1264.26 619.048 1261.05 607.456C1260.73 606.298 1260.44 605.101 1260.19 603.864C1258.58 608.219 1256.91 612.542 1255.19 616.836C1248.81 632.294 1239.5 647.041 1227.25 661.078C1225.58 685.885 1220.6 710.24 1212.29 734.143C1204.35 758.251 1194.07 779.961 1181.45 799.273C1169.19 818.79 1155.66 834.247 1140.85 845.643C1131.36 853.136 1121.81 858.211 1112.19 860.868C1102.58 863.525 1094.39 863.051 1087.61 859.446C1080.62 856.203 1076.08 850.764 1073.97 843.13C1072.09 836.345 1072.99 828.032 1076.66 818.192C1080.33 808.351 1087.16 796.725 1097.15 783.313C1100.45 778.748 1106.05 772.027 1113.95 763.15C1121.64 754.634 1130.4 745.059 1140.24 734.426C1150.37 723.715 1160.25 713.224 1169.89 702.951C1179.81 692.601 1188.66 683.309 1196.42 675.076C1204.27 667.125 1209.82 661.331 1213.07 657.692C1213.74 650.203 1213.55 642.344 1212.49 634.115C1211.36 625.603 1209.89 618.096 1208.09 611.593C1206.5 604.729 1205.13 599.781 1203.99 596.749C1202.79 605.604 1199.94 615.673 1195.45 626.956C1191.16 637.879 1185.75 649.115 1179.2 660.663C1175.31 667.519 1170.31 673.621 1164.17 678.967C1158.41 684.518 1152.27 688.192 1145.77 689.99C1139.55 691.709 1133.73 691.034 1128.32 687.965C1123.19 684.818 1119.25 678.297 1116.52 668.401C1114.72 661.898 1113.63 655.2 1113.25 648.306C1113.06 644.879 1112.96 641.651 1112.95 638.623C1112.66 639.368 1112.36 640.119 1112.05 640.876C1108.18 651.077 1104.04 660.893 1099.65 670.324C1095.18 679.472 1090.76 686.627 1086.41 691.787C1080.62 699.473 1072.92 704.645 1063.31 707.302C1056.24 709.255 1049.47 708.995 1043.01 706.522C1036.82 703.97 1032.64 698.736 1030.45 690.819C1027.4 679.793 1027.17 667.38 1029.74 653.582C1032.32 639.783 1036.29 626.057 1041.64 612.404C1046.92 598.467 1052.03 586.101 1056.95 575.304C1060.15 569.248 1061.28 564.523 1060.34 561.13C1059.64 558.585 1057.97 557.523 1055.35 557.944C1054.42 557.896 1053.25 558.067 1051.84 558.458C1045.62 560.177 1040.03 564.158 1035.06 570.401C1030.09 576.643 1026.05 581.867 1022.95 586.071C1012.76 599.844 1003.46 615.196 995.054 632.127C986.647 649.059 980.049 664.273 975.258 677.77C973.603 682.793 972.645 688.688 972.385 695.455C972.047 701.939 971.772 708.102 971.56 713.943C971.631 719.705 970.99 723.991 969.636 726.8C967.746 730.974 965.105 733.53 961.712 734.468C959.168 735.171 956.813 734.909 954.647 733.681C952.404 732.171 950.892 730.002 950.11 727.175C949.641 725.478 949.431 724.167 949.479 723.241C949.2 709.015 949.558 693.243 950.553 675.925C951.754 658.246 953.315 640.772 955.238 623.503C957.365 605.872 959.678 590.016 962.177 575.935C963.917 565.716 966.052 554.17 968.581 541.297C971.315 528.064 974.794 514.777 979.019 501.436C983.449 487.734 988.938 475.109 995.485 463.561C1002.31 451.935 1010.66 442.478 1020.51 435.189C1024.28 432.321 1028.29 430.3 1032.53 429.128C1038.19 427.565 1043.38 427.651 1048.12 429.384C1053.14 431.039 1056.55 435.118 1058.35 441.621C1060.07 447.841 1059.8 455.676 1057.54 465.126C1055.21 474.292 1051.78 483.913 1047.26 493.988C1042.74 504.063 1037.92 513.611 1032.81 522.633C1027.69 531.655 1023.08 539.17 1018.96 545.178C1009.33 558.795 1000.07 571.549 991.184 583.439C982.58 595.251 975.75 606.877 970.695 618.318C969.513 633.861 969.222 646.571 969.821 656.448C974.768 643.516 981.373 629.974 989.635 615.822C997.818 601.387 1005.8 588.985 1013.59 578.616C1017.79 572.89 1023.14 566.389 1029.65 559.112C1036.16 551.835 1043.38 547.102 1051.29 544.914C1056.95 543.351 1061.86 543.515 1066.04 545.404C1070.21 547.294 1072.96 550.642 1074.29 555.448C1076.09 561.951 1074.79 569.918 1070.4 579.349C1066 588.78 1061.37 600.103 1056.5 613.318C1051.92 626.454 1048.36 639.459 1045.83 652.331C1043.58 665.125 1043.75 676.187 1046.33 685.517C1047.58 690.041 1049.75 692.941 1052.84 694.216C1055.93 695.492 1059.18 695.661 1062.57 694.724C1067.66 693.317 1071.85 690.331 1075.16 685.766C1080.74 678.441 1085.49 670.282 1089.39 661.29C1093.58 652.22 1097.2 643.306 1100.26 634.548C1103.32 625.791 1105.94 618.218 1108.13 611.83C1108.69 609.954 1109.38 608.347 1110.2 607.007C1110.17 603.41 1110.68 599.362 1111.71 594.863C1113.8 586.984 1116.18 579.63 1118.86 572.804C1121.82 565.899 1123.59 561.3 1124.17 559.009C1124.43 557.721 1125.32 556.561 1126.86 555.526C1128.61 554.131 1130.19 553.238 1131.6 552.848C1133.58 552.301 1135.43 552.397 1137.16 553.137C1139.17 553.799 1140.41 554.979 1140.88 556.675C1141.03 557.241 1140.98 558.167 1140.73 559.454C1135.65 578.51 1131.6 597.433 1128.57 616.224C1125.76 634.654 1126.26 650.796 1130.09 664.65C1131.57 670.022 1133.62 673.566 1136.22 675.28C1138.75 676.713 1141.43 677.038 1144.25 676.256C1149.06 674.928 1153.78 671.645 1158.42 666.406C1163.06 661.168 1166.47 656.422 1168.64 652.17C1176.13 638.535 1182.08 624.262 1186.48 609.351C1190.88 594.44 1193.8 582.981 1195.23 574.975C1195.46 572.479 1196.17 569.544 1197.37 566.169C1198.77 562.434 1201.17 560.098 1204.56 559.16C1207.67 558.3 1209.9 559.206 1211.24 561.877C1212.8 564.187 1214.35 568.17 1215.92 573.825C1219.51 586.83 1222.23 598.861 1224.06 609.918C1226.19 620.896 1227.56 630.256 1228.17 637.998C1235.6 627.425 1241.75 615.531 1246.61 602.316C1251.69 588.74 1256.11 576.106 1259.88 564.413C1260.06 563.783 1260.29 563.21 1260.56 562.694C1261.93 553.864 1264.03 544.967 1266.87 536.004C1271.38 522.585 1277.56 510.833 1285.43 500.746C1293.21 490.378 1302.76 483.63 1314.07 480.505C1321.42 478.473 1327.8 478.992 1333.22 482.06C1338.83 484.768 1342.5 489.233 1344.22 495.453C1347.5 507.327 1346.85 519.833 1342.26 532.97C1337.68 546.106 1330.28 557.888 1320.08 568.317C1309.88 578.745 1297.85 585.874 1283.99 589.703L1278.9 591.11L1273.58 591.668C1273.75 595.578 1274.49 599.936 1275.82 604.743C1277.86 612.094 1281.43 618.41 1286.54 623.693C1291.93 628.897 1299.72 630.093 1309.9 627.28C1318.38 624.935 1325.99 620.549 1332.74 614.12C1339.48 607.691 1344.8 601.048 1348.69 594.191C1352.57 587.335 1355.77 581.278 1358.27 576.021C1360.77 570.764 1363.26 564.903 1365.74 558.437C1368.13 551.688 1371.05 542.97 1374.49 532.281C1374.72 531.377 1375.08 530.602 1375.57 529.958C1374.79 525.027 1374.39 519.876 1374.39 514.504C1374.28 504.188 1376.38 494.173 1380.69 484.459C1384.93 474.462 1391.15 465.591 1399.36 457.845C1407.85 450.021 1417.89 444.507 1429.48 441.303C1443.05 437.552 1454.53 438.336 1463.91 443.656C1473.22 448.692 1479.47 457.007 1482.67 468.599C1487.13 484.715 1487.99 499.389 1485.26 512.622C1482.8 525.777 1479.81 538.625 1476.28 551.166C1475.77 553.741 1475.29 555.852 1474.83 557.5C1474.38 559.148 1475.42 559.62 1477.96 558.917C1486.16 556.651 1493.28 551.031 1499.32 542.058C1502.49 537.35 1505.78 530.808 1509.2 522.431C1511.67 514.443 1514.16 506.759 1516.65 499.38C1520.09 488.691 1523.17 479.47 1525.9 471.717C1528.62 463.964 1530.52 458.722 1531.59 455.991C1534.68 448.443 1537.99 441.138 1541.51 434.077C1545.32 426.937 1551.75 422.117 1560.8 419.617C1568.43 417.507 1574.25 418.182 1578.25 421.641C1582.53 425.023 1585.45 429.541 1587.02 435.196C1589.83 445.374 1589.22 459.693 1585.19 478.153C1592.61 464.235 1601 451.112 1610.38 438.782C1620.03 426.375 1629.27 415.757 1638.09 406.928C1646.83 397.816 1653.7 391.812 1658.68 388.913C1660.99 387.362 1663.34 385.952 1665.72 384.683C1668.4 383.336 1670.86 382.35 1673.12 381.725C1675.95 380.943 1678.41 381.025 1680.5 381.97C1682.87 382.837 1684.6 385.249 1685.69 389.207C1686.79 393.166 1685.8 399.524 1682.75 408.281C1679.61 416.756 1675.66 426.674 1670.88 438.036C1666.32 449.037 1662.07 460.102 1658.15 471.229C1654.22 482.357 1651.98 492.411 1651.42 501.391C1651.12 503.605 1651.1 505.74 1651.36 507.798C1651.55 509.572 1651.84 511.166 1652.23 512.58C1654.34 520.214 1658.93 523.054 1666 521.1C1670.52 519.85 1675.55 516.025 1681.08 509.626C1684.34 505.988 1687.37 502.105 1690.19 497.979C1693.21 493.493 1695.36 489.703 1696.64 486.612C1699.55 480.633 1701.81 475.596 1703.41 471.5C1705.3 467.326 1706.97 462.908 1708.42 458.246C1710.08 453.224 1712.17 447.016 1714.69 439.624C1714.82 439.155 1714.96 438.72 1715.11 438.319C1727.18 397.204 1741.9 327.061 1751.95 258.804C1752.16 257.335 1752.38 255.868 1752.59 254.402C1751.52 254.099 1750.46 253.774 1749.42 253.428C1728.4 246.444 1715.29 231.285 1708.05 212.847C1700.89 194.598 1699.41 173.04 1701.31 152.312C1703.21 131.534 1708.56 111.089 1715.52 94.8035C1719.01 86.6612 1722.95 79.4084 1727.19 73.6248C1731.34 67.9522 1736.16 63.1625 1741.56 60.7081C1747.41 58.0457 1753.82 58.2543 1759.46 62.4881ZM1754.41 241.381C1758.64 210.256 1761.73 180.208 1762.98 154.249C1764.48 123.146 1763.28 98.8965 1758.84 85.5556C1756.31 77.9855 1753.63 74.3662 1751.66 72.885C1750.23 71.8103 1748.95 71.6277 1746.94 72.5415C1744.47 73.6633 1741.26 76.4172 1737.68 81.3059C1734.18 86.0835 1730.69 92.4096 1727.48 99.914C1721.06 114.922 1716.04 134.041 1714.25 153.5C1712.46 173.01 1713.97 192.362 1720.15 208.097C1726.25 223.642 1736.82 235.542 1753.52 241.091C1753.66 241.138 1753.8 241.185 1753.94 241.231C1754.1 241.282 1754.26 241.332 1754.41 241.381ZM133.53 711.329C216.991 687.293 325.543 614.342 404.207 557.725L404.329 557.895C412.501 552.175 420.924 546.996 429.599 542.358C440.488 536.61 450.597 532.446 459.927 529.867C474.064 525.96 485.95 526.023 495.586 530.055C505.222 534.087 511.759 542.323 515.197 554.763C517.463 562.963 518.784 573.249 519.161 585.623C519.82 597.918 519.748 610.872 518.946 624.484C518.143 638.097 517.042 651.183 515.644 663.742C514.529 676.224 513.408 687.033 512.281 696.17L514.212 696.549C518.527 686.836 524.07 674.956 530.84 660.912C537.892 646.79 545.817 631.97 554.615 616.452C563.695 600.856 573.575 585.952 584.255 571.74C594.935 557.528 606.02 545.334 617.512 535.159C628.925 524.701 640.71 517.791 652.867 514.431C666.439 510.68 677.194 511.056 685.133 515.557C693.355 519.979 699.068 527.987 702.272 539.579C705.476 551.171 706.526 564.88 705.422 580.706C704.24 596.249 702.029 611.925 698.79 627.732C695.755 643.179 692.675 656.812 689.551 668.631C683.965 690.261 678.841 711.915 674.181 733.593C669.804 755.193 667.177 777.07 666.3 799.224L665.81 813.967C665.929 818.804 666.653 823.625 667.982 828.432C669.388 833.521 671.135 836.538 673.222 837.483C675.309 838.427 677.279 838.948 679.132 839.045C680.985 839.141 682.263 840.462 682.966 843.007C683.435 844.703 683.119 846.312 682.018 847.834C680.995 849.638 679.494 850.814 677.514 851.361C673.273 852.533 669.412 851.774 665.929 849.085C662.73 846.317 660.081 842.789 657.982 838.499C655.962 834.493 654.6 831.217 653.897 828.672C652.568 823.866 651.703 819.084 651.301 814.326L650.943 799.817C651.663 777.097 654.315 754.757 658.897 732.796C663.683 710.474 668.972 688.318 674.763 666.327C677.556 655.512 680.305 642.884 683.008 628.442C685.917 613.639 687.938 598.929 689.072 584.312C690.205 569.695 689.327 557.156 686.435 546.695C684.56 539.909 681.183 534.299 676.306 529.865C671.633 525.07 664.631 523.962 655.301 526.54L654.453 526.775C641.447 530.369 628.931 537.937 616.904 549.478C604.877 561.019 593.515 574.963 582.816 591.311C572.323 607.297 562.668 624.117 553.852 641.77C544.958 659.14 537.117 675.915 530.328 692.095C523.744 707.914 518.451 721.246 514.449 732.091C511.644 739.561 509.303 747.056 507.425 754.574C505.468 761.81 503.41 769.227 501.249 776.824C498.533 787.921 495.716 799.199 492.796 810.658C489.877 822.116 486.918 833.434 483.92 844.609C482.909 849.758 481.716 854.805 480.344 859.749C478.972 864.693 477.458 869.677 475.803 874.699C475.676 875.343 474.882 876.323 473.42 877.64C472.036 879.24 470.92 880.157 470.072 880.391C468.375 880.86 466.625 880.583 464.821 879.56C463.094 878.82 461.997 877.602 461.528 875.905L461.176 874.633C461.381 874.272 461.444 873.95 461.366 873.668C464.341 855.803 468.062 837.884 472.529 819.911C476.918 801.656 480.922 783.659 484.54 765.921C491.35 733.301 496.668 700.79 500.494 668.386C504.525 635.622 505.25 603.01 502.67 570.551C502.562 569.059 502.313 567.607 501.922 566.193C501.736 564.418 501.408 562.683 500.939 560.986C498.361 551.656 493.414 545.872 486.1 543.632C478.786 541.393 470.181 541.641 460.285 544.376C452.086 546.642 443.069 550.352 433.233 555.505C424.453 560.169 415.957 565.398 407.746 571.19C404.457 573.549 401.115 575.938 397.724 578.351C392.087 582.57 387.099 586.757 382.76 590.91C373.784 599.173 364.774 608.967 355.731 620.292C346.688 631.617 338.508 643.312 331.191 655.378C324.156 667.365 318.819 678.883 315.177 689.932C312.938 697.246 311.601 705.072 311.166 713.409C310.732 721.746 311.53 729.59 313.562 736.941C315.984 745.706 320.161 752.008 326.091 755.847C332.304 759.607 340.782 760.003 351.526 757.034C359.16 754.924 364.707 751.869 368.166 747.87C371.909 743.792 375.618 741.245 379.293 740.23C382.969 739.214 385.236 740.261 386.096 743.371C387.033 746.764 385.592 750.357 381.772 754.152C377.873 757.665 373.292 760.909 368.028 763.885C362.686 766.579 358.46 768.356 355.35 769.215C340.93 773.201 328.746 772.612 318.798 767.449C308.772 762.003 302.078 753.201 298.718 741.044C296.374 732.562 295.546 723.508 296.233 713.884C296.921 704.26 298.652 695.108 301.427 686.429C305.273 675.018 311.098 663.061 318.902 650.557C326.446 638.439 334.79 626.776 343.934 615.566C276.771 660.557 200.363 705.61 137.128 723.821C94.3777 736.133 55.1212 736.905 29.3954 713.743C3.74604 690.651 -5.67983 646.219 4.57123 575.567L17.4365 577.434C7.28757 647.382 17.6617 685.687 38.0936 704.082C58.4489 722.408 91.555 723.418 133.53 711.329ZM1757.57 517.246C1753.33 518.418 1749.4 517.981 1745.8 515.935C1742.47 513.811 1740.22 510.628 1739.05 506.387C1737.88 502.146 1738.17 498.261 1739.93 494.73C1741.98 491.121 1745.12 488.731 1749.37 487.559C1753.61 486.387 1757.53 486.823 1761.14 488.869C1764.75 490.915 1767.14 494.059 1768.31 498.3C1769.48 502.541 1769.05 506.466 1767 510.074C1764.95 513.683 1761.81 516.074 1757.57 517.246ZM1451.44 565.336L1455.68 564.164C1459.66 555.455 1463.09 545.834 1465.96 535.302C1469.11 524.692 1471.06 514.111 1471.79 503.56C1472.45 492.727 1471.57 482.928 1469.15 474.163C1466.88 465.964 1462.85 459.623 1457.04 455.141C1451.16 450.375 1442.99 449.438 1432.53 452.33C1425.46 454.283 1418.96 457.753 1413.04 462.738C1407.32 467.363 1402.64 472.46 1399 478.029L1400.74 479.374C1401.23 478.935 1402.04 478.559 1403.17 478.247C1404.87 477.778 1406.62 478.055 1408.42 479.078C1410.15 479.818 1411.21 480.895 1411.6 482.309C1411.83 483.157 1411.89 483.903 1411.76 484.546C1411.63 485.19 1411.37 485.873 1410.96 486.594C1408.1 494.991 1405.27 502.925 1402.47 510.395C1399.67 517.865 1397.38 526.106 1395.61 535.117C1395.31 537.33 1394.86 539.583 1394.28 541.874C1399.43 551.71 1407.09 559.029 1417.24 563.832C1427.6 568.273 1439 568.775 1451.44 565.336ZM1420.77 603.028C1426.42 601.465 1431.61 598.206 1436.33 593.25C1440.96 588.012 1444.83 583.291 1447.93 579.086C1425.82 582.763 1407.37 577.668 1392.58 563.8C1392.84 565.857 1393.1 568.982 1393.34 573.175C1393.59 577.367 1394.26 581.443 1395.35 585.401C1396.92 591.056 1399.64 595.935 1403.51 600.038C1407.38 604.141 1413.13 605.138 1420.77 603.028ZM1311.09 558.931C1303.33 567.165 1294.07 572.766 1283.33 575.735L1278.24 577.142L1273.76 577.466C1274.05 571.908 1275.02 564.945 1276.66 556.578C1278.59 548.133 1281.22 539.493 1284.56 530.657C1288.11 521.461 1292.61 513.521 1298.07 506.839C1303.45 499.875 1309.81 495.377 1317.16 493.345C1320.84 492.329 1323.66 492.615 1325.62 494.204C1327.86 495.714 1329.41 498.024 1330.27 501.134C1332.77 510.182 1332.12 519.947 1328.32 530.431C1324.81 540.837 1319.07 550.337 1311.09 558.931ZM1109.26 850.265C1112.66 849.328 1116.18 847.746 1119.82 845.521C1123.47 843.297 1127.18 840.75 1130.95 837.881C1145.6 825.92 1158.13 811.804 1168.55 795.535C1179.24 779.188 1187.83 762.359 1194.31 745.048C1198.64 733.199 1202.01 721.16 1204.41 708.931C1206.89 696.985 1208.91 687.755 1210.45 681.241C1206.15 685.475 1200.31 691.348 1192.95 698.859C1185.88 706.293 1177.97 714.565 1169.23 723.677L1143.85 750.777C1135.67 759.732 1128.33 767.848 1121.82 775.125C1115.11 782.763 1110.2 788.684 1107.1 792.888C1100.01 802.457 1094.77 811.055 1091.4 818.682C1087.83 826.669 1086.82 833.49 1088.39 839.145C1089.64 843.669 1092.07 846.954 1095.68 849C1099.36 851.328 1103.89 851.75 1109.26 850.265ZM1007.77 468.382C1013.91 457.556 1020.89 449.235 1028.72 443.42C1029.98 442.464 1031.13 441.688 1032.19 441.093C1033.52 440.419 1034.75 439.926 1035.88 439.614C1040.41 438.363 1043.3 440 1044.55 444.524C1044.78 445.372 1044.95 446.542 1045.06 448.034C1045.09 449.243 1045.02 450.632 1044.84 452.202C1044.41 460.539 1042.19 470.13 1038.19 480.975C1034.47 491.742 1029.96 502.421 1024.67 513.013C1019.59 523.244 1014.58 532.085 1009.64 539.537C1004.08 548.072 998.308 556.363 992.316 564.41C986.606 572.379 980.258 581.894 973.272 592.955C975.127 578.747 977.65 564.202 980.841 549.321C983.954 534.157 987.687 519.583 992.039 505.598C996.673 491.536 1001.92 479.13 1007.77 468.382ZM743.406 794.347C734.075 796.926 726.908 796.32 721.904 792.53C717.105 788.378 713.729 782.768 711.775 775.7C709.899 768.914 709.077 761.533 709.307 753.557C709.537 745.581 710.065 738.131 710.891 731.208C711.921 723.923 712.854 718.492 713.691 714.913C716.358 704.742 719.668 694.697 723.622 684.778C727.859 674.782 732.793 665.658 738.425 657.406C743.979 648.871 750.104 641.852 756.8 636.35C763.701 630.486 771.109 626.461 779.026 624.273C792.597 620.522 803.226 621.54 810.912 627.329C818.52 632.834 823.457 639.687 825.724 647.886C826.505 650.713 826.901 653.799 826.913 657.143C826.954 661.697 826.556 665.763 825.719 669.342C825.165 672.843 823.757 674.906 821.495 675.531C819.516 676.078 817.405 675.596 815.162 674.086C812.918 672.576 811.806 670.753 811.824 668.618C811.843 666.482 812.003 664.308 812.304 662.094C812.888 659.802 813.047 657.628 812.783 655.571C812.675 654.079 812.465 652.768 812.152 651.637C812.122 650.428 811.951 649.258 811.639 648.127C809.529 640.493 805.539 635.966 799.668 634.545C794.002 632.763 788.342 632.654 782.687 634.217C776.184 636.014 769.906 639.727 763.854 645.356C758.084 650.907 753.319 656.789 749.558 663.002C745.057 670.941 740.83 679.87 736.876 689.789C732.922 699.707 729.855 709.532 727.675 719.265C727.501 720.835 726.883 724.657 725.824 730.732C725.046 736.729 724.465 743.433 724.078 750.844C723.896 757.894 724.587 764.246 726.15 769.901C727.244 773.859 729.029 777.018 731.507 779.376C734.268 781.656 737.91 782.171 742.434 780.921C747.24 779.593 752.128 775.807 757.098 769.564C762.351 763.243 767.33 755.933 772.036 747.632C776.946 738.971 781.227 730.789 784.88 723.084C788.533 715.379 791.163 709.478 792.77 705.382C793.841 702.652 794.732 699.818 795.442 696.883C796.357 693.587 797.35 690.574 798.421 687.843C798.957 686.477 800.497 685.443 803.042 684.74C805.304 684.115 807.761 684.196 810.413 684.985C813.271 685.413 814.729 686.836 814.789 689.254C814.205 691.545 813.295 696.514 812.061 704.159C811.031 711.443 810.337 719.395 809.981 728.015C809.546 736.352 810.149 743.489 811.79 749.427C813.822 756.778 817.256 760.394 822.092 760.274C825.358 759.98 828.297 757.951 830.909 754.186C833.803 750.343 836.156 746.192 837.967 741.736C840.061 737.2 841.581 733.889 842.526 731.802C846.275 722.245 849.561 712.663 852.384 703.057C855.412 693.09 858.596 683.689 861.936 674.853C863.008 672.123 864.674 670.445 866.936 669.82C870.894 668.726 873.459 670.299 874.631 674.54C875.022 675.954 874.2 680.137 872.166 687.091C870.053 693.761 867.327 701.514 863.986 710.35C860.929 719.108 857.959 727.08 855.076 734.268C852.193 741.456 848.706 748.658 844.614 755.876C840.522 763.093 834.094 767.913 825.329 770.336C817.13 772.602 810.967 772.327 806.842 769.511C802.998 766.617 800.452 762.908 799.201 758.384C798.107 754.426 797.398 750.209 797.074 745.734C796.672 740.975 796.466 736.924 796.454 733.58L794.406 732.776C792.721 736.589 789.998 741.603 786.238 747.816C782.477 754.029 778.19 760.539 773.376 767.348C768.484 773.873 763.397 779.692 758.115 784.804C753.115 789.838 748.212 793.019 743.406 794.347Z" fill="#0037FF"/>
</svg>
