<?xml version="1.0" encoding="UTF-8"?><svg id="_레이어_1" xmlns="http://www.w3.org/2000/svg" viewBox="0 0 168.02 99"><defs><style>.cls-1{fill:#0037ff;stroke-width:0px;}</style></defs><path class="cls-1" d="m132.05,1.15h0c-1.49-1.52-3.92-1.54-5.43-.05-7.76,7.65-16.88,23.85-27.1,48.15-3.22,7.64-6.04,14.93-8.23,20.79-3.22-16.08-5.99-28.35-8.27-36.58-.44-1.57-.82-2.89-1.17-4.01-.25-.78-.47-1.47-.68-2.06-1.13-3.24-1.72-3.86-2.06-4.22-1.46-1.55-3.89-1.61-5.43-.15-1.39,1.32-1.58,3.44-.53,4.98.09.18.36.76.83,2.12.02.06.04.12.06.18-4.82,23.59-14.2,39.78-27.9,48.12h0c-6.85,4.18-14.61,6.29-23.05,6.29h0c-1.28,0-2.48-.05-3.58-.13.56-.34,1.1-.69,1.63-1.06,1.61-1.13,3.15-2.4,4.59-3.78,2-1.93-.27-5.16-2.74-3.9-2.72,1.39-5.5,2.62-8.4,3.6-1.15.38-2.37.73-3.54.99-2.37.55-4.77.78-7.18.71-.79-.01-1.59.22-2.28.72-1.7,1.23-2.09,3.61-.87,5.31.87,1.2,1.9,2.3,2.96,3.32,4.01,3.79,9,6.72,14.33,8.39,2.62.82,4.36-2.69,2.11-4.28-.14-.1-.28-.2-.43-.3-1.03-.73-2.05-1.47-3.05-2.25,1.76.21,3.82.36,6.09.37h.35c9.69,0,18.99-2.53,26.93-7.34,7.33-4.44,13.64-10.84,18.76-19.02,3.72-5.94,6.83-12.89,9.32-20.74,2.03,8.56,4.76,21.21,8.31,39.86.33,1.72,1.77,3,3.51,3.12.09,0,.18,0,.27,0,1.64,0,3.11-1.04,3.64-2.62.21-.62,21.2-62.35,38.19-79.09,1.51-1.49,1.53-3.93.05-5.45Z"/><path class="cls-1" d="m160.98,67.52c.48,4.17,1.27,8.3,2.51,12.31.21.67,1.16.67,1.38,0,.2-.65.39-1.3.57-1.95,2.34-8.92,2.87-18.18,2.44-27.35h0c.08-2.81-2.81-4.69-5.3-3.34-4.87,2.72-9.64,5.74-13.85,9.45-.97.85-.21,2.44,1.06,2.21,2.42-.43,4.8-1.04,7.15-1.76-.04.08-.07.16-.1.24-7.54,20.18-13,21.62-14.49,21.59-1.98-.05-4.46-2.42-6.79-6.49-2.17-3.8-3.43-7.7-3.44-7.74-.12-.36-.28-.7-.49-1.01h0c1.07-.67,1.77-1.86,1.77-3.21,0-1.23-.59-2.33-1.49-3.02,0,0-.02,0-.02-.01-.83-.71-4.38-3.41-9.45-2.56-5.13.86-9.73,5.01-13.7,12.34-2.05,3.8-3.47,7.78-4.09,11.49-.48,2.85-.68,6.84,1.06,9.66,1.2,1.93,3.12,3.03,5.31,3.03.08,0,.16,0,.24,0,2.94-.11,6.08-2.18,9.58-6.32,2.23-2.64,4.63-6.14,7.16-10.45.26.5.53,1.01.82,1.51,3.88,6.83,8.36,10.36,13.33,10.49,4.02.11,7.87-2.07,11.46-6.46,2.53-3.08,4.96-7.26,7.38-12.66m-35.94-3.44h0c-6.89,13.2-11.17,17.56-13.05,18.98-.11-2.22.6-6.79,3.5-12.15,2.66-4.92,5.54-7.91,8.11-8.4.26-.05.51-.07.74-.07.7,0,1.3.19,1.74.39-.43.33-.78.76-1.04,1.25Z"/></svg>