<svg width="2164" height="881" viewBox="0 0 2164 881" fill="none" xmlns="http://www.w3.org/2000/svg">
<path fill-rule="evenodd" clip-rule="evenodd" d="M1758.96 62.2635C1764.06 66.0908 1767.83 72.6972 1770.67 81.22C1775.97 97.1291 1776.96 123.629 1775.46 154.652C1774.17 181.339 1770.99 212.105 1766.67 243.798C1782.32 245.563 1802.51 243.056 1828.26 234.109C1896.35 210.46 2000.33 142.892 2155.09 0L2163.91 9.55126C2008.92 152.66 1903.29 221.811 1832.53 246.389C1805.52 255.77 1783.16 258.814 1764.86 256.678C1764.68 257.942 1764.49 259.207 1764.31 260.472C1753.28 335.38 1736.6 413.036 1723.68 452.784L1723.45 452.709C1722.27 456.274 1720.88 460.193 1719.29 464.466C1717.23 470.21 1715.08 475.672 1712.86 480.85C1710.85 485.668 1709.37 489.121 1708.42 491.208C1706.33 495.743 1703.42 500.654 1699.71 505.941C1696.28 511.149 1692.55 515.831 1688.53 519.987C1684.71 523.782 1680.55 526.909 1676.06 529.368C1671.56 531.828 1667.05 533.683 1662.53 534.933C1655.18 536.965 1649.22 536.329 1644.66 533.025C1640.37 529.644 1637.57 525.55 1636.24 520.744C1634.21 513.393 1634.31 504.388 1636.53 493.729C1638.97 482.71 1642.29 471.597 1646.49 460.391C1650.9 448.825 1655.02 438.404 1658.85 429.129C1662.96 419.776 1665.68 413.091 1667 409.073C1667.33 408.069 1667.56 407.245 1667.69 406.601C1667.74 405.675 1667.68 404.929 1667.53 404.363C1666.9 402.101 1664.89 401.439 1661.5 402.377C1659.8 402.846 1657.94 403.817 1655.92 405.29C1645.65 413.301 1635.45 423.729 1625.3 436.576C1615.44 449.344 1606.66 462.726 1598.97 476.722C1591.47 490.358 1585.95 502.841 1582.38 514.173L1572.8 545.58C1572.02 548.233 1571.41 550.988 1570.98 553.845C1570.47 556.419 1569.83 559.033 1569.04 561.685C1567.97 564.416 1566.16 566.133 1563.62 566.836C1562.2 567.227 1560.53 567.233 1558.6 566.853C1556.67 566.474 1555.51 565.578 1555.12 564.164C1554.49 561.902 1554.37 559.806 1554.75 557.875C1555.98 550.23 1557.63 540.795 1559.71 529.571C1562.06 518.269 1564.2 506.723 1566.11 494.933C1568.23 482.783 1569.7 471.574 1570.51 461.306C1571.61 450.96 1571.38 442.959 1569.81 437.305C1569.34 435.608 1568.49 434.17 1567.25 432.991C1566.22 431.451 1564.57 430.994 1562.31 431.619C1558.91 432.556 1555.91 434.908 1553.3 438.673C1550.97 442.36 1549.04 446.393 1547.51 450.771L1543.5 461.012C1539.95 470.208 1537.1 478.605 1534.94 486.202C1532.7 493.516 1530.32 500.869 1527.8 508.261C1527.41 509.449 1526.99 510.664 1526.55 511.908C1524.08 519.757 1521.39 527.008 1518.48 533.662C1513.91 544.663 1507.34 553.934 1498.77 561.476C1490.13 568.735 1478.35 574.576 1463.45 579C1459.07 586.296 1453.17 593.558 1445.73 600.787C1438.58 607.938 1430.33 612.803 1421 615.381C1413.37 617.491 1406.74 617.192 1401.13 614.484C1395.51 611.776 1390.79 607.907 1386.96 602.878C1383.34 597.488 1380.83 592.248 1379.42 587.159C1377.63 580.668 1376.82 573.21 1377 564.783C1375.09 570.025 1373.06 575.225 1370.91 580.383C1364.78 594.553 1356.97 607.058 1347.49 617.895C1338.21 628.372 1326.37 635.603 1311.95 639.588C1297.24 643.652 1285.75 642.263 1277.47 635.422C1269.39 628.22 1263.75 618.823 1260.55 607.231C1260.23 606.074 1259.94 604.877 1259.68 603.64C1258.07 607.994 1256.41 612.318 1254.69 616.611C1248.31 632.069 1239 646.817 1226.75 660.854C1225.08 685.66 1220.1 710.015 1211.79 733.918C1203.84 758.026 1193.56 779.736 1180.95 799.049C1168.69 818.566 1155.16 834.022 1140.35 845.418C1130.86 852.911 1121.3 857.987 1111.69 860.643C1102.08 863.3 1093.88 862.826 1087.1 859.222C1080.12 855.978 1075.57 850.539 1073.46 842.906C1071.59 836.12 1072.49 827.807 1076.16 817.967C1079.83 808.127 1086.66 796.5 1096.65 783.088C1099.95 778.523 1105.55 771.802 1113.44 762.925C1121.13 754.409 1129.9 744.835 1139.74 734.202C1149.87 723.491 1159.75 712.999 1169.39 702.727C1179.31 692.376 1188.15 683.085 1195.92 674.851C1203.77 666.901 1209.32 661.106 1212.57 657.467C1213.24 649.978 1213.05 642.119 1211.99 633.89C1210.85 625.378 1209.39 617.871 1207.59 611.368C1206 604.505 1204.63 599.557 1203.49 596.525C1202.28 605.379 1199.44 615.448 1194.95 626.732C1190.66 637.655 1185.25 648.89 1178.7 660.438C1174.81 667.295 1169.8 673.396 1163.67 678.743C1157.9 684.294 1151.77 687.968 1145.26 689.765C1139.04 691.484 1133.23 690.809 1127.81 687.74C1122.68 684.593 1118.75 678.072 1116.02 668.176C1114.22 661.674 1113.13 654.975 1112.74 648.082C1112.55 644.654 1112.46 641.426 1112.45 638.399C1112.16 639.144 1111.86 639.895 1111.55 640.651C1107.67 650.852 1103.54 660.668 1099.15 670.099C1094.68 679.248 1090.26 686.402 1085.91 691.562C1080.12 699.249 1072.42 704.42 1062.8 707.077C1055.74 709.031 1048.97 708.771 1042.5 706.297C1036.32 703.745 1032.13 698.511 1029.95 690.595C1026.9 679.568 1026.66 667.156 1029.24 653.357C1031.82 639.559 1035.78 625.833 1041.14 612.179C1046.42 598.243 1051.52 585.876 1056.45 575.08C1059.65 569.023 1060.78 564.298 1059.84 560.905C1059.13 558.361 1057.47 557.299 1054.85 557.719C1053.92 557.671 1052.75 557.842 1051.34 558.233C1045.12 559.952 1039.52 563.933 1034.55 570.176C1029.58 576.419 1025.55 581.642 1022.45 585.846C1012.26 599.619 1002.96 614.971 994.552 631.903C986.145 648.834 979.546 664.048 974.755 677.546C973.1 682.568 972.142 688.463 971.882 695.23C971.544 701.714 971.269 707.877 971.058 713.718C971.129 719.481 970.487 723.766 969.133 726.575C967.244 730.749 964.602 733.305 961.21 734.243C958.665 734.946 956.31 734.684 954.145 733.457C951.901 731.946 950.389 729.778 949.608 726.95C949.139 725.254 948.929 723.942 948.977 723.016C948.697 708.79 949.055 693.018 950.051 675.7C951.251 658.022 952.813 640.547 954.735 623.278C956.862 605.648 959.175 589.792 961.674 575.711C963.415 565.491 965.549 553.945 968.078 541.073C970.812 527.84 974.291 514.553 978.517 501.212C982.947 487.51 988.435 474.885 994.982 463.337C1001.81 451.711 1010.15 442.253 1020.01 434.965C1023.78 432.096 1027.79 430.076 1032.03 428.904C1037.68 427.341 1042.88 427.426 1047.62 429.159C1052.64 430.815 1056.05 434.894 1057.85 441.397C1059.57 447.617 1059.3 455.451 1057.04 464.901C1054.71 474.068 1051.28 483.689 1046.76 493.763C1042.24 503.838 1037.42 513.386 1032.31 522.408C1027.19 531.43 1022.57 538.945 1018.45 544.954C1008.83 558.57 999.568 571.324 990.681 583.214C982.077 595.027 975.247 606.653 970.192 618.093C969.01 633.636 968.719 646.346 969.319 656.224C974.266 643.292 980.87 629.75 989.132 615.597C997.316 601.162 1005.3 588.76 1013.09 578.392C1017.29 572.666 1022.64 566.164 1029.15 558.887C1035.66 551.61 1042.87 546.877 1050.79 544.689C1056.45 543.127 1061.36 543.29 1065.53 545.18C1069.71 547.069 1072.46 550.417 1073.79 555.224C1075.59 561.727 1074.29 569.694 1069.89 579.125C1065.5 588.556 1060.87 599.879 1056 613.093C1051.42 626.23 1047.86 639.234 1045.33 652.106C1043.08 664.9 1043.25 675.962 1045.83 685.292C1047.08 689.816 1049.25 692.716 1052.34 693.992C1055.43 695.268 1058.67 695.437 1062.07 694.499C1067.16 693.093 1071.35 690.107 1074.66 685.542C1080.24 678.216 1084.98 670.058 1088.89 661.065C1093.08 651.995 1096.7 643.081 1099.76 634.324C1102.82 625.566 1105.44 617.993 1107.63 611.606C1108.19 609.73 1108.88 608.122 1109.7 606.782C1109.67 603.186 1110.17 599.138 1111.21 594.639C1113.29 586.759 1115.68 579.406 1118.35 572.579C1121.31 565.674 1123.09 561.076 1123.67 558.784C1123.92 557.497 1124.82 556.336 1126.36 555.302C1128.1 553.907 1129.68 553.014 1131.1 552.623C1133.08 552.076 1134.93 552.173 1136.66 552.913C1138.66 553.575 1139.9 554.754 1140.37 556.451C1140.53 557.016 1140.48 557.942 1140.23 559.23C1135.15 578.285 1131.09 597.208 1128.07 615.999C1125.25 634.43 1125.76 650.572 1129.59 664.426C1131.07 669.798 1133.12 673.341 1135.72 675.056C1138.25 676.488 1140.92 676.813 1143.75 676.032C1148.56 674.703 1153.28 671.42 1157.92 666.182C1162.56 660.943 1165.96 656.198 1168.13 651.945C1175.63 638.31 1181.57 624.037 1185.97 609.126C1190.37 594.215 1193.29 582.757 1194.73 574.751C1194.95 572.254 1195.67 569.319 1196.86 565.945C1198.27 562.21 1200.66 559.873 1204.06 558.935C1207.17 558.076 1209.39 558.982 1210.74 561.653C1212.29 563.963 1213.85 567.945 1215.41 573.6C1219.01 586.606 1221.72 598.637 1223.56 609.693C1225.68 620.672 1227.05 630.032 1227.67 637.773C1235.1 627.2 1241.24 615.306 1246.11 602.091C1251.19 588.516 1255.61 575.882 1259.37 564.189C1259.56 563.558 1259.79 562.986 1260.06 562.47C1261.43 553.639 1263.53 544.743 1266.37 535.78C1270.87 522.361 1277.06 510.608 1284.92 500.522C1292.71 490.153 1302.26 483.406 1313.57 480.28C1320.92 478.248 1327.3 478.767 1332.71 481.836C1338.33 484.544 1342 489.008 1343.72 495.228C1347 507.103 1346.35 519.608 1341.76 532.745C1337.18 545.881 1329.78 557.664 1319.58 568.092C1309.37 578.521 1297.34 585.649 1283.49 589.478L1278.4 590.885L1273.08 591.443C1273.24 595.353 1273.99 599.712 1275.32 604.518C1277.35 611.869 1280.92 618.186 1286.04 623.468C1291.43 628.673 1299.22 629.868 1309.4 627.055C1317.88 624.711 1325.49 620.324 1332.24 613.895C1338.98 607.466 1344.3 600.823 1348.18 593.967C1352.07 587.11 1355.27 581.053 1357.77 575.796C1360.27 570.54 1362.76 564.678 1365.23 558.212C1367.63 551.464 1370.55 542.745 1373.98 532.057C1374.21 531.152 1374.57 530.378 1375.07 529.733C1374.28 524.802 1373.89 519.651 1373.89 514.279C1373.78 503.963 1375.88 493.948 1380.19 484.234C1384.43 474.238 1390.65 465.366 1398.86 457.62C1407.35 449.796 1417.39 444.282 1428.98 441.078C1442.55 437.328 1454.03 438.112 1463.41 443.431C1472.71 448.468 1478.97 456.782 1482.17 468.374C1486.63 484.49 1487.49 499.164 1484.75 512.398C1482.3 525.552 1479.31 538.4 1475.78 550.942C1475.27 553.516 1474.79 555.627 1474.33 557.275C1473.87 558.924 1474.92 559.396 1477.46 558.693C1485.66 556.427 1492.78 550.807 1498.82 541.833C1501.99 537.125 1505.28 530.583 1508.69 522.207C1511.17 514.219 1513.66 506.535 1516.15 499.155C1519.59 488.467 1522.67 479.246 1525.39 471.493C1528.12 463.739 1530.02 458.498 1531.09 455.767C1534.18 448.218 1537.49 440.913 1541.01 433.852C1544.82 426.713 1551.25 421.893 1560.3 419.392C1567.93 417.282 1573.75 417.957 1577.75 421.417C1582.03 424.798 1584.95 429.316 1586.51 434.971C1589.33 445.149 1588.72 459.469 1584.69 477.929C1592.11 464.011 1600.5 450.887 1609.87 438.558C1619.53 426.15 1628.77 415.532 1637.59 406.703C1646.33 397.592 1653.19 391.587 1658.17 388.689C1660.48 387.137 1662.83 385.727 1665.22 384.458C1667.89 383.111 1670.36 382.125 1672.62 381.5C1675.45 380.719 1677.91 380.8 1679.99 381.745C1682.36 382.612 1684.09 385.024 1685.19 388.983C1686.28 392.941 1685.3 399.299 1682.24 408.057C1679.11 416.531 1675.15 426.45 1670.38 437.812C1665.81 448.813 1661.57 459.877 1657.64 471.005C1653.72 482.132 1651.48 492.186 1650.92 501.167C1650.61 503.38 1650.6 505.516 1650.86 507.573C1651.05 509.348 1651.33 510.942 1651.73 512.355C1653.84 519.989 1658.42 522.829 1665.49 520.876C1670.02 519.625 1675.05 515.801 1680.58 509.402C1683.84 505.763 1686.87 501.881 1689.69 497.755C1692.71 493.268 1694.86 489.479 1696.13 486.387C1699.04 480.409 1701.3 475.371 1702.91 471.275C1704.8 467.101 1706.47 462.683 1707.92 458.021C1709.58 452.999 1711.67 446.792 1714.19 439.399C1714.32 438.93 1714.46 438.495 1714.61 438.094C1726.68 396.979 1741.4 326.836 1751.45 258.579C1751.66 257.111 1751.88 255.644 1752.09 254.178C1751.01 253.874 1749.96 253.549 1748.91 253.203C1727.9 246.219 1714.78 231.06 1707.55 212.622C1700.38 194.373 1698.9 172.815 1700.81 152.088C1702.71 131.31 1708.06 110.864 1715.02 94.5789C1718.5 86.4366 1722.45 79.1838 1726.69 73.4002C1730.84 67.7276 1735.66 62.9379 1741.05 60.4835C1746.91 57.8211 1753.32 58.0297 1758.96 62.2635ZM1753.91 241.157C1758.14 210.031 1761.22 179.984 1762.48 154.025C1763.98 122.922 1762.78 98.6719 1758.34 85.331C1755.81 77.7609 1753.13 74.1416 1751.16 72.6604C1749.73 71.5857 1748.44 71.4031 1746.44 72.3169C1743.97 73.4387 1740.76 76.1926 1737.18 81.0813C1733.68 85.8589 1730.18 92.185 1726.98 99.6893C1720.56 114.697 1715.54 133.816 1713.75 153.275C1711.96 172.785 1713.47 192.137 1719.65 207.872C1725.75 223.418 1736.32 235.317 1753.01 240.867C1753.16 240.914 1753.3 240.96 1753.44 241.007C1753.6 241.057 1753.75 241.107 1753.91 241.157ZM133.027 711.104C216.488 687.069 325.041 614.117 403.704 557.5L403.827 557.67C411.998 551.95 420.422 546.771 429.096 542.133C439.985 536.385 450.095 532.221 459.425 529.643C473.561 525.736 485.448 525.798 495.083 529.83C504.719 533.862 511.256 542.099 514.694 554.539C516.96 562.738 518.282 573.024 518.658 585.398C519.317 597.693 519.246 610.647 518.443 624.26C517.64 637.872 516.54 650.958 515.142 663.518C514.026 675.999 512.906 686.808 511.779 695.945L513.71 696.325C518.025 686.611 523.567 674.732 530.337 660.688C537.39 646.565 545.315 631.745 554.112 616.227C563.192 600.631 573.072 585.728 583.752 571.516C594.432 557.304 605.518 545.11 617.009 534.934C628.422 524.476 640.207 517.567 652.365 514.207C665.936 510.456 676.691 510.831 684.631 515.332C692.853 519.755 698.565 527.762 701.769 539.354C704.973 550.946 706.023 564.655 704.919 580.481C703.737 596.025 701.526 611.7 698.287 627.507C695.252 642.954 692.173 656.587 689.048 668.406C683.462 690.036 678.339 711.69 673.679 733.368C669.301 754.968 666.674 776.845 665.798 799L665.307 813.743C665.427 818.579 666.151 823.401 667.479 828.207C668.886 833.296 670.632 836.313 672.72 837.258C674.807 838.203 676.777 838.724 678.629 838.82C680.482 838.917 681.76 840.237 682.463 842.782C682.932 844.478 682.616 846.087 681.515 847.609C680.492 849.413 678.991 850.589 677.012 851.136C672.771 852.308 668.909 851.55 665.427 848.86C662.227 846.092 659.578 842.564 657.48 838.275C655.459 834.268 654.098 830.992 653.394 828.448C652.066 823.641 651.201 818.859 650.799 814.101L650.44 799.592C651.161 776.872 653.812 754.532 658.394 732.571C663.181 710.25 668.469 688.093 674.26 666.103C677.054 655.288 679.802 642.659 682.506 628.217C685.414 613.414 687.435 598.704 688.569 584.087C689.703 569.47 688.824 556.931 685.933 546.47C684.057 539.685 680.681 534.075 675.803 529.64C671.13 524.845 664.129 523.737 654.799 526.316L653.95 526.55C640.945 530.145 628.428 537.713 616.402 549.254C604.375 560.794 593.012 574.739 582.314 591.086C571.82 607.073 562.165 623.892 553.349 641.545C544.455 658.916 536.614 675.691 529.825 691.871C523.242 707.689 517.949 721.021 513.946 731.866C511.142 739.336 508.8 746.831 506.922 754.35C504.966 761.586 502.907 769.002 500.746 776.599C498.031 787.697 495.213 798.975 492.294 810.433C489.374 821.892 486.415 833.209 483.417 844.385C482.406 849.534 481.214 854.58 479.841 859.524C478.469 864.469 476.955 869.452 475.3 874.474C475.173 875.118 474.379 876.098 472.917 877.416C471.533 879.015 470.417 879.932 469.569 880.167C467.873 880.636 466.122 880.359 464.318 879.336C462.592 878.595 461.494 877.377 461.025 875.681L460.674 874.408C460.878 874.048 460.942 873.726 460.863 873.443C463.839 855.578 467.56 837.659 472.026 819.687C476.415 801.431 480.419 783.434 484.038 765.696C490.847 733.076 496.165 700.565 499.991 668.161C504.022 635.397 504.747 602.785 502.167 570.326C502.059 568.835 501.81 567.382 501.419 565.968C501.233 564.194 500.906 562.458 500.437 560.762C497.858 551.432 492.912 545.647 485.598 543.408C478.283 541.169 469.679 541.417 459.783 544.152C451.584 546.418 442.566 550.127 432.73 555.281C423.95 559.945 415.454 565.173 407.243 570.965C403.954 573.325 400.612 575.713 397.221 578.126C391.584 582.346 386.596 586.532 382.258 590.685C373.281 598.949 364.272 608.743 355.228 620.068C346.185 631.393 338.005 643.088 330.688 655.153C323.654 667.14 318.316 678.658 314.675 689.708C312.435 697.022 311.098 704.847 310.664 713.184C310.229 721.521 311.027 729.365 313.059 736.717C315.482 745.481 319.658 751.783 325.588 755.622C331.801 759.383 340.28 759.779 351.024 756.809C358.657 754.699 364.204 751.645 367.664 747.645C371.406 743.568 375.115 741.021 378.79 740.005C382.466 738.989 384.734 740.036 385.593 743.146C386.531 746.539 385.089 750.133 381.269 753.928C377.37 757.44 372.789 760.684 367.525 763.661C362.183 766.355 357.957 768.131 354.847 768.991C340.427 772.976 328.244 772.387 318.295 767.224C308.269 761.778 301.576 752.977 298.216 740.819C295.871 732.337 295.043 723.284 295.731 713.66C296.418 704.035 298.15 694.883 300.924 686.204C304.77 674.794 310.596 662.836 318.4 650.332C325.943 638.215 334.287 626.551 343.431 615.341C276.268 660.332 199.86 705.386 136.625 723.597C93.875 735.908 54.6186 736.68 28.8927 713.519C3.2434 690.426 -6.18247 645.994 4.06859 575.342L16.9339 577.209C6.78494 647.157 17.1591 685.462 37.5909 703.857C57.9463 722.184 91.0524 723.193 133.027 711.104ZM1757.07 517.021C1752.83 518.193 1748.9 517.756 1745.29 515.71C1741.97 513.586 1739.72 510.404 1738.55 506.163C1737.37 501.922 1737.67 498.036 1739.43 494.505C1741.48 490.897 1744.62 488.506 1748.86 487.334C1753.1 486.162 1757.03 486.599 1760.64 488.645C1764.25 490.691 1766.64 493.834 1767.81 498.075C1768.98 502.316 1768.54 506.241 1766.5 509.85C1764.45 513.458 1761.31 515.849 1757.07 517.021ZM1450.93 565.112L1455.17 563.94C1459.16 555.23 1462.59 545.609 1465.46 535.077C1468.61 524.467 1470.56 513.886 1471.29 503.336C1471.95 492.502 1471.07 482.703 1468.65 473.939C1466.38 465.739 1462.34 459.398 1456.54 454.916C1450.66 450.151 1442.49 449.214 1432.03 452.105C1424.96 454.059 1418.46 457.528 1412.53 462.514C1406.81 467.138 1402.13 472.235 1398.5 477.805L1400.24 479.149C1400.73 478.71 1401.54 478.335 1402.67 478.022C1404.37 477.553 1406.12 477.83 1407.92 478.853C1409.65 479.593 1410.7 480.67 1411.1 482.084C1411.33 482.932 1411.38 483.678 1411.26 484.322C1411.13 484.965 1410.86 485.648 1410.45 486.37C1407.6 494.766 1404.77 502.7 1401.97 510.17C1399.16 517.641 1396.88 525.881 1395.11 534.892C1394.8 537.105 1394.36 539.358 1393.78 541.65C1398.93 551.486 1406.58 558.805 1416.74 563.607C1427.09 568.048 1438.49 568.55 1450.93 565.112ZM1420.27 602.803C1425.92 601.24 1431.11 597.981 1435.82 593.026C1440.46 587.787 1444.33 583.066 1447.43 578.862C1425.32 582.539 1406.87 577.443 1392.08 563.575C1392.34 565.632 1392.6 568.757 1392.84 572.95C1393.09 577.143 1393.76 581.218 1394.85 585.177C1396.41 590.831 1399.13 595.71 1403.01 599.813C1406.88 603.917 1412.63 604.913 1420.27 602.803ZM1310.59 558.707C1302.82 566.94 1293.57 572.541 1282.82 575.511L1277.74 576.917L1273.26 577.241C1273.55 571.683 1274.52 564.721 1276.16 556.354C1278.09 547.909 1280.72 539.268 1284.06 530.433C1287.61 521.236 1292.11 513.297 1297.56 506.615C1302.94 499.65 1309.31 495.152 1316.66 493.12C1320.33 492.104 1323.15 492.391 1325.11 493.979C1327.36 495.489 1328.91 497.8 1329.77 500.91C1332.27 509.957 1331.62 519.723 1327.82 530.207C1324.31 540.612 1318.56 550.112 1310.59 558.707ZM1108.76 850.041C1112.15 849.103 1115.67 847.522 1119.32 845.297C1122.96 843.072 1126.67 840.525 1130.45 837.657C1145.1 825.695 1157.63 811.58 1168.04 795.311C1178.74 778.963 1187.33 762.134 1193.8 744.823C1198.14 732.974 1201.51 720.935 1203.91 708.707C1206.39 696.761 1208.4 687.531 1209.95 681.017C1205.64 685.25 1199.81 691.123 1192.45 698.635C1185.38 706.068 1177.47 714.341 1168.73 723.452L1143.35 750.552C1135.17 759.507 1127.83 767.623 1121.32 774.901C1114.6 782.539 1109.7 788.46 1106.6 792.664C1099.5 802.233 1094.27 810.83 1090.9 818.457C1087.33 826.445 1086.32 833.266 1087.88 838.92C1089.13 843.444 1091.56 846.729 1095.17 848.775C1098.86 851.104 1103.39 851.526 1108.76 850.041ZM1007.27 468.157C1013.41 457.331 1020.39 449.01 1028.22 443.195C1029.47 442.239 1030.63 441.463 1031.68 440.868C1033.02 440.195 1034.25 439.702 1035.38 439.389C1039.91 438.139 1042.79 439.775 1044.04 444.299C1044.28 445.147 1044.45 446.317 1044.56 447.809C1044.59 449.018 1044.51 450.408 1044.34 451.978C1043.9 460.315 1041.69 469.906 1037.68 480.75C1033.96 491.517 1029.46 502.196 1024.17 512.788C1019.09 523.019 1014.07 531.861 1009.13 539.312C1003.58 547.847 997.806 556.138 991.813 564.185C986.103 572.154 979.755 581.669 972.769 592.73C974.625 578.522 977.148 563.978 980.339 549.097C983.452 533.933 987.184 519.358 991.536 505.374C996.171 491.311 1001.42 478.906 1007.27 468.157ZM742.903 794.123C733.573 796.702 726.406 796.096 721.402 792.305C716.602 788.153 713.226 782.544 711.272 775.475C709.397 768.69 708.574 761.309 708.804 753.332C709.035 745.356 709.562 737.906 710.388 730.983C711.418 723.699 712.351 718.267 713.188 714.688C715.855 704.517 719.165 694.472 723.119 684.554C727.356 674.557 732.29 665.433 737.922 657.181C743.476 648.646 749.601 641.628 756.297 636.125C763.198 630.262 770.606 626.236 778.523 624.048C792.094 620.297 802.723 621.316 810.409 627.104C818.018 632.609 822.955 639.462 825.221 647.661C826.002 650.488 826.399 653.574 826.41 656.919C826.451 661.472 826.054 665.539 825.217 669.118C824.663 672.618 823.255 674.681 820.993 675.307C819.014 675.854 816.902 675.372 814.659 673.862C812.416 672.351 811.303 670.529 811.322 668.393C811.34 666.258 811.5 664.083 811.801 661.87C812.385 659.578 812.545 657.403 812.281 655.346C812.173 653.854 811.962 652.543 811.65 651.412C811.62 650.203 811.449 649.033 811.136 647.902C809.026 640.268 805.036 635.741 799.165 634.32C793.499 632.539 787.839 632.429 782.184 633.992C775.682 635.789 769.404 639.502 763.351 645.132C757.582 650.682 752.816 656.564 749.056 662.777C744.555 670.717 740.327 679.646 736.373 689.564C732.419 699.482 729.352 709.308 727.173 719.04C726.998 720.61 726.381 724.433 725.321 730.508C724.544 736.505 723.962 743.209 723.575 750.62C723.394 757.669 724.084 764.022 725.647 769.676C726.741 773.635 728.527 776.793 731.005 779.151C733.765 781.432 737.407 781.947 741.931 780.697C746.738 779.368 751.626 775.582 756.596 769.34C761.848 763.019 766.827 755.708 771.533 747.408C776.443 738.747 780.725 730.564 784.377 722.859C788.03 715.154 790.66 709.254 792.267 705.158C793.338 702.427 794.229 699.594 794.939 696.659C795.854 693.362 796.847 690.349 797.919 687.618C798.454 686.253 799.994 685.219 802.539 684.515C804.801 683.89 807.258 683.972 809.911 684.76C812.768 685.188 814.226 686.611 814.286 689.029C813.702 691.321 812.793 696.289 811.558 703.934C810.528 711.219 809.835 719.171 809.478 727.791C809.043 736.128 809.646 743.265 811.287 749.202C813.319 756.553 816.753 760.169 821.589 760.05C824.856 759.756 827.795 757.726 830.406 753.961C833.3 750.118 835.653 745.968 837.464 741.511C839.559 736.976 841.078 733.665 842.023 731.578C845.772 722.02 849.059 712.438 851.882 702.833C854.909 692.866 858.093 683.465 861.434 674.629C862.505 671.898 864.171 670.22 866.433 669.595C870.392 668.501 872.957 670.075 874.129 674.316C874.52 675.729 873.698 679.913 871.663 686.866C869.55 693.536 866.824 701.29 863.484 710.125C860.426 718.883 857.456 726.856 854.573 734.043C851.691 741.231 848.203 748.434 844.112 755.651C840.02 762.869 833.591 767.689 824.827 770.111C816.627 772.377 810.465 772.102 806.339 769.286C802.496 766.392 799.949 762.683 798.699 758.159C797.605 754.201 796.896 749.984 796.572 745.509C796.17 740.751 795.963 736.699 795.952 733.355L793.904 732.552C792.219 736.365 789.496 741.378 785.735 747.591C781.974 753.804 777.687 760.315 772.873 767.123C767.982 773.649 762.895 779.468 757.612 784.579C752.612 789.613 747.709 792.794 742.903 794.123Z" fill="#335FFF"/>
</svg>
